<svg xmlns="http://www.w3.org/2000/svg" viewBox="0 0 500 500"><g id="freepik--background-simple--inject-389"><g><path d="M164.196,91.827c-26.655,2.847-52.358,8.907-75.155,18.413-26.868,11.204-54.32,28.659-46.212,51.49,14.969,42.149,86.781,42.917,72.443,71.257-16.241,32.101-5.349,69.757,67.527,80.228,138.419,19.889,305.746-96.484,258.75-160.43-29.258-39.81-135.821-76.073-277.353-60.958Z" style="fill:#92E3A9;"></path><path d="M164.196,91.827c-26.655,2.847-52.358,8.907-75.155,18.413-26.868,11.204-54.32,28.659-46.212,51.49,14.969,42.149,86.781,42.917,72.443,71.257-16.241,32.101-5.349,69.757,67.527,80.228,138.419,19.889,305.746-96.484,258.75-160.43-29.258-39.81-135.821-76.073-277.353-60.958Z" style="fill:#fff; opacity:.9;"></path></g></g><g id="freepik--Shadow--inject-389"><path d="M443.736,466.321c0,2.19-84.096,14.635-189.98,14.635s-197.491-12.273-197.491-14.463,90.921-.171,196.806-.171,190.665-2.19,190.665,0Z" style="fill:#f5f5f5;"></path></g><g id="freepik--Speech_Bubble--inject-389"><g><g><path d="M329.732,129.042c-15.974-12.361-38.944-9.432-51.304,6.542-9.543,12.332-9.936,28.816-2.286,41.387l-3.196,10.509,11.564-.986c.159,.127,.299,.27,.46,.395,15.974,12.361,38.943,9.432,51.304-6.542,12.361-15.974,9.432-38.944-6.542-51.304Z" style="fill:#92E3A9;"></path><path d="M348.554,158.076h-.026c-.275-.015-.487-.25-.473-.526,.611-11.662-5.131-23.584-14.631-30.375-.225-.161-.276-.473-.116-.698,.16-.224,.474-.276,.698-.116,9.771,6.984,15.677,19.247,15.047,31.241-.014,.267-.234,.474-.499,.474Z" style="fill:#92E3A9;"></path><path d="M347.085,168.822c-.063,0-.128-.012-.19-.038-.255-.105-.377-.397-.271-.653,.661-1.606,.99-3.373,.953-5.109-.006-.276,.213-.505,.489-.511,.296-.004,.505,.213,.511,.489,.04,1.873-.315,3.779-1.029,5.511-.079,.193-.266,.31-.462,.31Z" style="fill:#92E3A9;"></path></g><path d="M323.339,147.528c-2.499-2.014-5.235-2.029-7.906-1.225-2.083,.626-3.349,2.031-4.865,3.753-.703,.798-1.418,2.09-1.978,3.486-.56-1.396-1.276-2.688-1.978-3.486-1.516-1.722-2.781-3.126-4.865-3.753-2.671-.803-5.407-.789-7.906,1.225-2.347,1.892-2.731,5.381-2.035,8.315,.695,2.934,2.628,5.916,4.518,8.088,3.964,4.555,7.479,8.001,12.266,10.488,5.934-3.398,8.302-5.933,12.266-10.488,1.89-2.172,3.823-5.154,4.518-8.088,.695-2.935,.312-6.424-2.035-8.315Z" style="fill:#fff;"></path></g></g><g id="freepik--Character--inject-389"><g><g><path d="M225.121,193.287c5.71,11.67,13.636,22.221,23.135,31.075s20.513,16.014,32.469,21.045c6.778,2.853,13.832,5,21.057,6.373,1.415,.269,2.021-1.899,.598-2.17-12.531-2.381-24.529-7.104-35.389-13.785s-20.608-15.348-28.51-25.424c-4.437-5.657-8.258-11.795-11.417-18.251-.636-1.3-2.577-.161-1.943,1.136h0Z" style="fill:#263238;"></path><path d="M221.039,172.18l-68.094,27.15c7.01,24.468,7.266,51.111-1.069,75.161-1.119,3.23-2.399,6.452-2.753,9.852-.354,3.4,.354,7.092,2.736,9.543,1.979,2.037,4.81,2.953,7.521,3.799,6.558,2.045,13.117,4.089,19.675,6.134,11.784,3.674,23.635,7.363,35.866,9.026,12.231,1.663,24.975,1.217,36.501-3.201,11.526-4.418,21.719-13.146,26.176-24.656-2.186-4.867-4.373-9.734-6.559-14.601,3.311,3.051,6.622,6.102,9.933,9.153,4.174-2.742,7.838-6.256,10.752-10.312-34.301-23.393-55.918-64.206-70.685-97.047Z" style="fill:#263238;"></path><g><path d="M175.747,220.199c2.753,14.045,5.497,39.795-4.327,49.168,0,0,32.78,18.568,47.569,45.65,10.068-24.394-3.898-45.65-3.898-45.65-15.676-3.742-15.264-15.35-12.539-26.287l-26.805-22.881Z" style="fill:#fdad6a;"></path><path d="M186.675,229.543l15.868,13.527c-.679,2.539-1.131,5.133-1.353,7.752-5.986-.863-14.208-7.435-14.842-13.7-.35-2.525-.239-5.093,.326-7.579Z" style="isolation:isolate; opacity:.2;"></path><path d="M160.925,194.42c5.478,22.852,7.32,32.619,20.866,42.472,20.368,14.784,46.674,3.118,47.969-20.895,1.19-21.615-7.972-55.356-31.775-60.623-23.418-5.19-42.548,16.194-37.061,39.047Z" style="fill:#fdad6a;"></path><path d="M158.939,165.687c22.814,19.514,45.043-12.721,58.311,3.156,7.675-6.831-13.949-24.416-26.959-25.059-13.009-.643-41.205,8.318-31.352,21.903Z" style="fill:#263238;"></path><path d="M162.46,163.826c23.879,8.74,8.593,77.953-.819,59.483-5.43-10.658-23.598-55.223,.819-59.483Z" style="fill:#263238;"></path><path d="M204.845,217.263c1.074-.006,2.146-.102,3.204-.288,.303-.053,.505-.341,.452-.644v-.008c-.049-.298-.329-.502-.628-.454l-.017,.003c-4.728,.943-9.623-.422-13.182-3.674-.221-.218-.576-.218-.796,0-.218,.221-.218,.576,0,.796,2.962,2.793,6.895,4.324,10.966,4.269Z" style="fill:#263238;"></path><path d="M160.575,218.672c3.029,3.303,7.329,5.147,11.81,5.065,5.603-.297,6.246-6.773,2.878-11.983-3.022-4.691-9.594-10.189-14.333-7.339-4.739,2.849-4.413,10.016-.355,14.256Z" style="fill:#fdad6a;"></path><g><g><path d="M189.599,194.829c.313,2.329,1.902,4.141,3.548,4.046,1.646-.094,2.726-2.059,2.412-4.387-.313-2.329-1.902-4.141-3.547-4.046-1.646,.094-2.726,2.059-2.413,4.388Z" style="fill:#263238;"></path><path d="M213.709,192.512c.304,2.223,1.862,3.95,3.478,3.857,1.616-.093,2.68-1.969,2.376-4.192-.304-2.223-1.861-3.95-3.478-3.857-1.616,.092-2.68,1.969-2.376,4.192Z" style="fill:#263238;"></path><path d="M185.642,186.512c.323,.038,.65-.043,.9-.252,3.892-3.266,8.291-2.03,8.342-2.016,.652,.185,1.31-.144,1.457-.754,.145-.609-.27-1.257-.931-1.452-.23-.066-5.751-1.622-10.581,2.433-.481,.404-.488,1.133-.016,1.627,.228,.237,.526,.378,.829,.413Z" style="fill:#263238;"></path><path d="M221.041,180.59c.246-.141,.435-.367,.508-.651,.153-.586-.236-1.19-.866-1.351-6.323-1.606-10.32,1.715-10.488,1.86-.473,.403-.496,1.097-.049,1.55,.444,.453,1.187,.495,1.661,.095,.155-.132,3.294-2.664,8.322-1.386,.325,.082,.652,.031,.912-.118Z" style="fill:#263238;"></path><path d="M207.072,191.391s5.196,10.124,10.162,14.89c-2.745,3.104-8.165,2.011-8.165,2.011l-1.996-16.9Z" style="fill:#fe7f3a;"></path></g><path d="M196.559,188.973l-5.232,1.677c2.628,2.526,5.232-1.677,5.232-1.677Z" style="fill:#263238;"></path><path d="M220.362,186.873l-5.232,1.677c2.628,2.526,5.232-1.677,5.232-1.677Z" style="fill:#263238;"></path></g><path d="M171.037,215.12c-.188,0-.351-.142-.372-.333-.226-1.997-1.429-3.893-3.14-4.948-1.711-1.056-3.946-1.28-5.831-.583-.194,.073-.409-.028-.482-.222-.071-.194,.028-.41,.222-.482,2.098-.773,4.583-.525,6.484,.648,1.903,1.173,3.241,3.282,3.492,5.503,.023,.206-.125,.392-.331,.415-.014,.001-.028,.002-.042,.002Z" style="opacity:.5;"></path></g><g><path d="M152.321,199.469l-8.084-27.491s-27.075-8.206-27.519-23.694c-.444-15.489,16.559-35.012,58.278-43.169,41.719-8.157,58.63,21.397,52.458,31.158-6.172,9.762-13.234,11.838-13.234,11.838l7.238,25.548s-32.253-5.313-69.136,25.811Z" style="fill:#92E3A9;"></path><path d="M152.321,199.469l-8.084-27.491s-27.075-8.206-27.519-23.694c-.444-15.489,16.559-35.012,58.278-43.169,41.719-8.157,58.63,21.397,52.458,31.158-6.172,9.762-13.234,11.838-13.234,11.838l7.238,25.548s-32.253-5.313-69.136,25.811Z" style="fill:#fff; opacity:.3;"></path><g style="opacity:.3;"><path d="M168.008,116.093c-1.205-1.855-2.872-2.849-6.114-2.048-13.762,2.473-26.573,9.931-35.52,20.676-1.811,2.175-3.525,4.62-3.838,7.432-.313,2.812,1.26,6.015,4.025,6.615,2.75,.597,5.319-1.436,7.351-3.383,6.801-6.513,13.349-13.892,22.213-17.071,2.082-.747,4.252-1.242,6.303-2.071,2.051-.829,4.028-2.047,5.251-3.89,1.223-1.843,1.535-4.404,.33-6.259Z" style="fill:#fff;"></path></g><path d="M144.237,171.978s20.324-36.831,69.982-23.867c0,0-23.48-11.744-46.322,.218-18.902,9.899-23.66,23.649-23.66,23.649Z" style="opacity:.3;"></path><path d="M135.749,144.4c4.383,6.944,11.026,11.995,18.883,14.377-8.172-.919-15.819-6.747-18.883-14.377h0Z" style="fill:#263238;"></path><path d="M175.2,147.915c-2.794-6.393-4.945-13.004-6.432-19.821,2.799,6.391,4.94,13.005,6.432,19.821h0Z" style="fill:#263238;"></path><path d="M202.083,145.93c2.909-6.705,5.018-13.507,6.427-20.678-.007,7.291-2.305,14.666-6.427,20.678h0Z" style="fill:#263238;"></path><path d="M127.319,169.43c-.053,0-.106-.008-.159-.026-5.805-1.942-10.772-6.432-13.288-12.012-2.517-5.58-2.594-12.276-.207-17.912,.107-.255,.404-.372,.655-.266,.254,.108,.373,.401,.266,.655-2.28,5.384-2.207,11.78,.197,17.111,2.404,5.33,7.149,9.62,12.694,11.475,.262,.087,.403,.371,.315,.633-.07,.209-.265,.341-.474,.341Z" style="fill:#92E3A9;"></path><path d="M115.917,136.756c-.068,0-.137-.014-.204-.043-.252-.113-.365-.408-.252-.661,.774-1.732,1.826-3.311,3.129-4.693,.189-.201,.507-.211,.707-.021,.201,.189,.21,.506,.021,.707-1.225,1.3-2.215,2.786-2.943,4.416-.083,.186-.266,.296-.457,.296Z" style="fill:#92E3A9;"></path><g style="opacity:.3;"><path d="M186.544,114.607c-.57-2.706-3.134-3.846-5.828-3.09-1.495,.675-2.666,2.074-2.976,3.685-.31,1.611,.288,3.388,1.568,4.414,1.28,1.026,3.202,1.209,4.611,.367,1.583-.947,3.163-2.824,2.626-5.376Z" style="fill:#fff;"></path></g><path d="M148.838,174.699s6.86,20.348,7.424,18.987c2.821-6.8,27.986-18.316,36.694-20.164,0,0-6.447-23.902-8.708-23.306-2.261,.595-26.148,8.152-35.411,24.483Z" style="fill:#fff; opacity:.3;"></path></g></g><g><path d="M302.081,315.669s21.387-23.212,29.428-24.866c8.041-1.654,13.392,7.426,15.07,14.558,1.507,6.405,1.447,11.088,.976,12.477-.997,2.941-4.137,.349-6.205-1.968-.694-.777-1.295-1.649-1.652-2.586-1.369-3.593-1.494-4.675-3.227-6.855-2.129-2.677-6.37-8.188-4.448,1.219,.747,3.657,8.384,6.822,8.212,10.928-.171,4.106-2.224,4.791-5.817,2.566,0,0-3.422,5.646-11.292,5.304l-10.779,11.977-10.266-22.756Z" style="fill:#fdad6a;"></path><path d="M336.872,322.904c-1.126,0-2.261-.444-3.207-.889-2.076-.976-4.077-2.14-5.954-3.463-1.939,2.183-4.786,3.504-7.71,3.557-3.088,.045-6.129-1.299-8.15-3.623-.182-.208-.159-.524,.049-.705,.209-.183,.524-.158,.705,.049,1.83,2.104,4.591,3.328,7.379,3.279,2.789-.05,5.501-1.375,7.255-3.545,.167-.208,.465-.245,.682-.091,1.935,1.398,4.011,2.622,6.171,3.638,1.189,.56,2.711,1.126,3.91,.551,1.288-.618,1.682-2.36,1.318-3.687-.408-1.489-1.523-2.686-2.668-3.757-3.522-3.295-7.704-5.907-11.747-8.434-.234-.146-.306-.454-.159-.688,.146-.235,.458-.306,.688-.159,4.084,2.552,8.308,5.189,11.901,8.551,1.191,1.115,2.474,2.489,2.949,4.224,.465,1.698-.025,3.976-1.85,4.852-.506,.242-1.033,.341-1.562,.341Z" style="fill:#fe7f3a;"></path><path d="M343.09,316.844c-1.35,0-2.45-1.058-2.497-1.103-.197-.192-.202-.508-.01-.706,.192-.197,.509-.203,.706-.012,.005,.005,.464,.443,1.084,.678,.744,.28,1.371,.147,1.91-.414,1.034-1.075,.275-6.208-1.846-12.481-.541-1.602-2.08-4.093-3.203-5.911-1.073-1.737-1.327-2.175-1.349-2.479-.02-.275,.188-.515,.464-.534,.24-.021,.492,.169,.53,.426,.078,.238,.676,1.207,1.205,2.062,1.148,1.859,2.722,4.406,3.3,6.116,1.142,3.377,3.585,11.451,1.619,13.495-.54,.562-1.17,.852-1.872,.863h-.042Z" style="fill:#fe7f3a;"></path><path d="M248.238,275.273s11.224,3.622,17.406,21.258c6.181,17.635,7.272,24.362,7.272,24.362l3.317,11.383,28.304-21.757s22.62,53.099,20.256,56.553c-2.364,3.454-50.423,27.089-50.423,27.089l-19.635-72.359-6.497-46.529Z" style="fill:#92E3A9;"></path><path d="M248.238,275.273s11.224,3.622,17.406,21.258c6.181,17.635,7.272,24.362,7.272,24.362l3.317,11.383,28.304-21.757s22.62,53.099,20.256,56.553c-2.364,3.454-50.423,27.089-50.423,27.089l-19.635-72.359-6.497-46.529Z" style="fill:#fff; opacity:.3;"></path><path d="M255.187,288.778s9.906,16.265,11.648,31.084c1.742,14.819,14.082,71.051,14.082,71.051l-6.546,3.248-19.183-105.383Z" style="opacity:.3;"></path><g><path d="M345.143,324.854c-1.177-.051-2.116,1.419-1.574,2.465s2.284,1.128,2.922,.138c.638-.991-.158-2.542-1.335-2.602" style="fill:#92E3A9;"></path><path d="M336.566,333.515c-1.177-.051-2.116,1.419-1.574,2.465,.542,1.046,2.284,1.128,2.922,.138s-.158-2.542-1.335-2.602" style="fill:#92E3A9;"></path><path d="M339.4,330.637c-.794-.034-1.427,.957-1.062,1.663,.365,.706,1.541,.761,1.971,.093,.43-.669-.107-1.715-.901-1.756" style="fill:#92E3A9;"></path><path d="M348.818,332.739c-.794-.034-1.427,.957-1.062,1.663,.366,.706,1.541,.761,1.971,.093,.43-.668-.107-1.715-.901-1.756" style="fill:#92E3A9;"></path><path d="M342.091,321.228c-.794-.034-1.427,.957-1.062,1.663,.365,.706,1.541,.761,1.971,.093,.43-.669-.107-1.715-.901-1.756" style="fill:#92E3A9;"></path><path d="M350.583,324.255c-.794-.034-1.427,.957-1.062,1.663,.365,.706,1.541,.761,1.971,.093s-.107-1.715-.901-1.756" style="fill:#92E3A9;"></path></g><g style="opacity:.3;"><path d="M345.143,324.854c-1.177-.051-2.116,1.419-1.574,2.465s2.284,1.128,2.922,.138c.638-.991-.158-2.542-1.335-2.602" style="fill:#fff;"></path><path d="M336.566,333.515c-1.177-.051-2.116,1.419-1.574,2.465,.542,1.046,2.284,1.128,2.922,.138s-.158-2.542-1.335-2.602" style="fill:#fff;"></path><path d="M339.4,330.637c-.794-.034-1.427,.957-1.062,1.663,.365,.706,1.541,.761,1.971,.093,.43-.669-.107-1.715-.901-1.756" style="fill:#fff;"></path><path d="M348.818,332.739c-.794-.034-1.427,.957-1.062,1.663,.366,.706,1.541,.761,1.971,.093,.43-.668-.107-1.715-.901-1.756" style="fill:#fff;"></path><path d="M342.091,321.228c-.794-.034-1.427,.957-1.062,1.663,.365,.706,1.541,.761,1.971,.093,.43-.669-.107-1.715-.901-1.756" style="fill:#fff;"></path><path d="M350.583,324.255c-.794-.034-1.427,.957-1.062,1.663,.365,.706,1.541,.761,1.971,.093s-.107-1.715-.901-1.756" style="fill:#fff;"></path></g><path d="M276.232,332.276s1.154,8.273,1.511,11.262l1.719-13.745-3.23,2.483Z" style="opacity:.3;"></path></g><g><path d="M169.513,267.608c-1.318,.439-39.242,17.604-39.242,21.997s43.096,117.145,43.096,117.145l-11.048,56.523h129.405s-25.765-96.457-27.083-131.219c-1.318-34.761-16.403-56.781-16.403-56.781,0,0-35.449-10.61-35.889-12.229-.439-1.619-5.887-11.614-5.887-11.614l-35.398-1.662-1.551,17.84h0Z" style="fill:#92E3A9;"></path><path d="M169.513,267.608c-1.318,.439-39.242,17.604-39.242,21.997s43.096,117.145,43.096,117.145l-11.048,56.523h129.405s-25.765-96.457-27.083-131.219c-1.318-34.761-16.403-56.781-16.403-56.781,0,0-35.449-10.61-35.889-12.229-.439-1.619-5.887-11.614-5.887-11.614l-35.398-1.662-1.551,17.84h0Z" style="fill:#fff; opacity:.3;"></path><path d="M218.902,391.536c.049,2.495-1.391,4.546-3.217,4.582-1.825,.036-3.345-1.958-3.393-4.452-.049-2.495,1.391-4.546,3.216-4.582,1.825-.036,3.345,1.958,3.393,4.452Z" style="fill:#263238;"></path><path d="M255.871,386.49c.049,2.495-1.391,4.546-3.217,4.582-1.825,.036-3.345-1.958-3.393-4.452-.049-2.495,1.391-4.546,3.216-4.582,1.825-.036,3.345,1.958,3.394,4.452Z" style="fill:#263238;"></path><path d="M193.446,463.31l-.997-.072c.02-.272,1.979-27.602,3.083-57.015,1.101-29.329-24.845-106.185-25.107-106.958l-.145-.428,35.236-16.078-7.461-31.069,.973-.234,7.654,31.872-35.165,16.045c2.1,6.264,26.08,78.522,25.015,106.888-1.104,29.431-3.064,56.777-3.084,57.05Z" style="fill:#263238;"></path><path d="M168.332,432.426l56.678-13.067,2.919-27.421s22.113,.885,27.421-5.897c5.307-6.781,6.295-22.297,6.295-22.297l-51.998,7.26-36.281,35.747-5.035,25.676Z" style="opacity:.3;"></path><path d="M193.413,308.258c.624,2.416-.303,4.744-2.07,5.201s-3.706-1.131-4.331-3.547c-.624-2.416,.303-4.744,2.07-5.201,1.768-.457,3.706,1.131,4.331,3.547Z" style="fill:#263238;"></path><path d="M227.889,297.518c.624,2.416-.303,4.744-2.07,5.201s-3.706-1.131-4.331-3.547c-.624-2.416,.303-4.744,2.07-5.201,1.768-.457,3.706,1.132,4.331,3.547Z" style="fill:#263238;"></path><path d="M205.001,337.717c.624,2.416-.303,4.744-2.07,5.201-1.768,.457-3.706-1.131-4.331-3.547-.624-2.416,.303-4.744,2.07-5.201s3.706,1.131,4.331,3.547Z" style="fill:#263238;"></path><path d="M237.952,327.327c.624,2.416-.303,4.744-2.07,5.201s-3.706-1.131-4.331-3.547c-.624-2.416,.303-4.744,2.07-5.201,1.768-.457,3.707,1.131,4.331,3.547Z" style="fill:#263238;"></path><path d="M222.601,422.082c.049,2.495-1.391,4.546-3.217,4.582-1.825,.036-3.345-1.958-3.393-4.452-.049-2.495,1.391-4.546,3.217-4.582,1.825-.036,3.345,1.958,3.393,4.452Z" style="fill:#263238;"></path><path d="M259.57,417.036c.049,2.495-1.391,4.546-3.216,4.582s-3.345-1.957-3.393-4.452c-.049-2.495,1.391-4.546,3.217-4.582,1.825-.036,3.345,1.958,3.393,4.452Z" style="fill:#263238;"></path><path d="M167.055,369.475c-2.776-11.138-10.051-37.421-10.051-37.421l2.426,37.995,2.716,7.184s5.401-2.598,5.95-2.861l39.923-18.712-40.964,13.815Z" style="opacity:.3;"></path></g><g><g><path d="M403.237,295.875c-.802-3.137-2.906-6.954-6.078-6.302-2.807,.577-3.595,4.15-3.795,7.009-.446,6.354-.893,12.708-1.339,19.063-1.252-4.535-2.503-9.07-3.755-13.606-.523-1.895-1.525-4.186-3.491-4.221-2.456-.044-3.223,3.281-3.184,5.738l.216,13.741c-.539-.945-1.729-1.65-2.841-1.402-1.831,.407-2.912,2.399-3.052,4.269-.14,1.87-.163,5.268-.341,7.135-.639,6.704-1.927,10.053-5.092,15.137-3.225,5.18-9.259,7.912-14.408,11.188l19.328,15.213c12.586-6.301,22.071-18.064,26.705-31.354,4.635-13.29,4.614-27.971,1.126-41.607Z" style="fill:#b97964;"></path><path d="M276,345.467c1.584,1.935,9.016,32.721,43.074,31.56,34.058-1.161,67.291-6.236,76.63-10.062,17.593-7.208,22.447-36.38,22.447-36.38-1.935,0-142.151,14.882-142.151,14.882Z" style="fill:#263238;"></path><rect x="220.022" y="349.025" width="59.881" height="8.962" transform="translate(-45.065 36.637) rotate(-7.692)" style="fill:#263238;"></rect><rect x="220.022" y="349.025" width="59.881" height="8.962" transform="translate(-45.065 36.637) rotate(-7.692)" style="fill:#fff; opacity:.3;"></rect><path d="M293.179,346.3s13.982,28.025,42.591,26.701c0,0-20.026-11.74-23.095-28.688l-19.496,1.986Z" style="fill:#fff; opacity:.3;"></path><path d="M411.077,335.369s-8.934,30.018-37.342,33.653c0,0,17.699-15.021,17.796-32.244l19.546-1.409Z" style="fill:#fff; opacity:.1;"></path></g><g><path d="M131.205,288.136s-11.744,11.952-12.129,37.694c-.385,25.742,3.978,97.057,12.29,102.448,8.312,5.391,91.45-23.26,91.45-23.26,0,0-12.707-50.827-13.862-50.827s-48.564,22.869-48.564,22.869c0,0-.594-48.784-5.6-64.956-5.006-16.172-4.944-28.894-23.585-23.967Z" style="fill:#92E3A9;"></path><path d="M131.205,288.136s-11.744,11.952-12.129,37.694c-.385,25.742,3.978,97.057,12.29,102.448,8.312,5.391,91.45-23.26,91.45-23.26,0,0-12.707-50.827-13.862-50.827s-48.564,22.869-48.564,22.869c0,0-.594-48.784-5.6-64.956-5.006-16.172-4.944-28.894-23.585-23.967Z" style="fill:#fff; opacity:.3;"></path><polygon points="160.39 377.06 155.271 395.553 165.459 374.619 160.39 377.06" style="opacity:.3;"></polygon><g style="opacity:.3;"><path d="M134.849,293.062c2.353-1.744,5.935-.345,8.171,1.547s3.599,4.61,4.651,7.343c4.419,11.48,4.285,24.313,1.764,36.354-2.521,12.04-7.311,23.468-12.075,34.809-.908,2.162-2.836,4.774-4.978,3.82-1.172-.522-1.65-1.904-1.988-3.142-7.23-26.482-8.807-49.695-5.601-61.524,0,0,.725-12.29,10.056-19.206Z" style="fill:#fff;"></path></g><path d="M255.382,348.252s-.378-7.039-6.612-7.191c-6.234-.152-8.666,1.368-11.859,2.585-3.193,1.216-13.076,8.058-13.076,8.058l-13.836,6.69,6.334,21.271s.964-6.067,9.175-5.155c8.21,.912,14.9,1.521,17.029,1.216l2.129-.304s4.257,1.216,5.626-1.673c0,0,5.778,0,5.473-5.322,0,0,7.354-2.461,6.815-6.154-.539-3.692-2.529-5.731-2.529-5.731l-3.208,.555s-8.072-6.763-7.616-8.131l6.156-.715Z" style="fill:#fdad6a;"></path><polygon points="209.918 356.489 214.221 354.376 221.838 382.776 217.556 384.366 209.918 356.489" style="fill:#fff;"></polygon></g></g></g></g><g id="freepik--Table--inject-389"><path d="M325.009,434.121c-1.607,0-2.904,1.381-2.737,2.979,1.489,14.292,13.573,25.434,28.258,25.434s26.77-11.142,28.26-25.434c.166-1.598-1.13-2.979-2.737-2.979h-51.044Z" style="fill:#92E3A9;"></path><rect x="41.187" y="460.053" width="418.144" height="6.439" style="fill:#263238;"></rect><rect x="388.154" y="439.234" width="15.392" height="20.819" rx="2.207" ry="2.207" style="fill:#92E3A9;"></rect></g></svg>
