<svg xmlns="http://www.w3.org/2000/svg" viewBox="0 0 750 500"><g id="freepik--background-simple--inject-339"><g><path d="M738,268.75c-3.06-33.3-13.62-66.02-28.81-96.33C663.83,81.9,570.6,2.83,458.82,6.81c-71.67,2.56-142.76,11.29-214.05,18.22-60.85,5.91-121.38,11.33-169.3,51.12-20.74,17.22-37.45,38.84-47.72,63.06-28.56,67.34-7.22,146.84,38.93,204.89,46.14,58.05,113.75,97.66,183.26,128.86,28.34,12.72,60.15,24.51,90.39,16.57,18.63-4.89,34.23-16.74,51.9-24.12,59.47-24.83,128.44,4.38,193.15-1.91,38.44-3.74,75.28-20.64,102.1-46.84,32.04-31.29,49.02-74.73,51.17-118.15,.49-9.94,.25-19.88-.66-29.77Z" style="fill:#92E3A9;"></path><path d="M738,268.75c-3.06-33.3-13.62-66.02-28.81-96.33C663.83,81.9,570.6,2.83,458.82,6.81c-71.67,2.56-142.76,11.29-214.05,18.22-60.85,5.91-121.38,11.33-169.3,51.12-20.74,17.22-37.45,38.84-47.72,63.06-28.56,67.34-7.22,146.84,38.93,204.89,46.14,58.05,113.75,97.66,183.26,128.86,28.34,12.72,60.15,24.51,90.39,16.57,18.63-4.89,34.23-16.74,51.9-24.12,59.47-24.83,128.44,4.38,193.15-1.91,38.44-3.74,75.28-20.64,102.1-46.84,32.04-31.29,49.02-74.73,51.17-118.15,.49-9.94,.25-19.88-.66-29.77Z" style="fill:#fff; opacity:.7;"></path></g></g><g id="freepik--Shadow--inject-339"><ellipse cx="376.44" cy="437.59" rx="364.17" ry="39.84" style="fill:#263238; stroke:#263238; stroke-miterlimit:10;"></ellipse></g><g id="freepik--Soda--inject-339"><g><polygon points="536.53 165.95 527.54 164.83 544.3 29.87 553.3 31 536.53 165.95" style="fill:#92E3A9; stroke:#263238; stroke-miterlimit:10;"></polygon><path d="M552.04,88.59h-26.91c-33.14,6.3-58.21,35.41-58.21,70.38,0,.21,.01,.43,.02,.64h143.29c0-.21,.02-.43,.02-.64,0-34.98-25.06-64.08-58.21-70.38Z" style="fill:none; stroke:#263238; stroke-miterlimit:10;"></path><g><polygon points="596.97 430.28 482.46 430.28 468.15 162.82 611.28 162.82 596.97 430.28" style="fill:#92E3A9; stroke:#263238; stroke-miterlimit:10;"></polygon><path d="M611.28,162.82h-26.77c2.62,18.7,.81,39.78-9.85,61.74-28.26,58.2-64.6,81.08-97.02,115.72l4.82,89.99h17.56c.93-27.75,13.53-66.76,57.9-115.08,19.28-20.99,35.22-41.02,48.39-59.6l4.97-92.78Z" style="fill:#fff; stroke:#263238; stroke-miterlimit:10;"></path><polygon points="610.63 175.1 611.27 163 468.16 163 468.81 175.1 610.63 175.1" style="fill:#263238; stroke:#263238; stroke-miterlimit:10;"></polygon><polygon points="616.19 172.91 463.24 172.91 466.2 158.12 613.23 158.12 616.19 172.91" style="fill:#fff; stroke:#263238; stroke-miterlimit:10;"></polygon></g></g></g><g id="freepik--French_Fries--inject-339"><g><g><path d="M297.99,167.97s-30.17,93.78-30.95,100.79c-.78,7.01-5.73,16.25-5.73,16.25l7.24,3.13s16.1-20.35,20.83-43.07c4.74-22.72,14.96-52.9,18.21-64.53s-4.48-18-9.61-12.57Z" style="fill:#263238; stroke:#263238; stroke-miterlimit:10;"></path><path d="M240.36,161.89s-3.27,53.7,1.31,73.99c4.58,20.3,3.27,52.39,3.27,52.39,0,0,13.75,13.75,15.06,6.55s-6.55-100.19-7.2-111.97c-.65-11.79-9.17-28.16-12.44-20.95Z" style="fill:#263238; stroke:#263238; stroke-miterlimit:10;"></path><path d="M224.01,166.93s-3.27,53.7,1.31,73.99c4.58,20.3,3.27,52.39,3.27,52.39,0,0,13.75,13.75,15.06,6.55,1.31-7.2-6.55-100.19-7.2-111.97-.65-11.79-9.17-28.16-12.44-20.95Z" style="fill:#263238; stroke:#263238; stroke-miterlimit:10;"></path><path d="M196.48,286.96s-9.17-34.71-16.37-58.28c-7.2-23.57-12.44-39.94-12.44-39.94l9.17-5.89s3.27,4.58,5.24,7.2c1.96,2.62,21.61,79.89,24.23,84.47,2.62,4.58,5.89,13.75,5.89,13.75l-15.72-1.31Z" style="fill:#e3e3e3; stroke:#263238; stroke-miterlimit:10;"></path><path d="M189.28,178.91s17.68,96.91,20.3,103.46c2.62,6.55,2.62,17.03,2.62,17.03l7.86-.65s4.58-25.54-1.96-47.8-11.79-53.7-14.41-65.48c-2.62-11.79-12.44-13.75-14.41-6.55Z" style="fill:#263238; stroke:#263238; stroke-miterlimit:10;"></path><path d="M204.26,178.91s17.68,96.91,20.3,103.46c2.62,6.55,2.62,17.03,2.62,17.03l7.86-.65s4.58-25.54-1.96-47.8c-6.55-22.26-11.79-53.7-14.41-65.48-2.62-11.79-12.44-13.75-14.41-6.55Z" style="fill:#263238; stroke:#263238; stroke-miterlimit:10;"></path><path d="M215.47,172.36s-3.27,53.7,1.31,73.99c4.58,20.3,3.27,52.39,3.27,52.39,0,0,13.75,13.75,15.06,6.55s-6.55-100.19-7.2-111.97c-.65-11.79-9.17-28.16-12.44-20.95Z" style="fill:#e3e3e3; stroke:#263238; stroke-miterlimit:10;"></path><path d="M227.91,173.67s4.58,81.85,5.24,85.78c.65,3.93,4.58,34.71,4.58,34.71,0,0-.65,5.24,3.27,4.58s7.2-1.96,7.2-1.96l2.62-19.64s-9.82-62.86-11.13-73.99c-1.31-11.13-3.93-30.12-5.89-30.78-1.96-.65-5.89,1.31-5.89,1.31Z" style="fill:#e3e3e3; stroke:#263238; stroke-miterlimit:10;"></path><path d="M277.6,176.74s-30.17,93.78-30.95,100.79c-.78,7.01-5.73,16.25-5.73,16.25l7.24,3.13s16.1-20.35,20.83-43.07c4.74-22.72,14.96-52.9,18.21-64.53,3.26-11.63-4.48-18-9.61-12.57Z" style="fill:#263238; stroke:#263238; stroke-miterlimit:10;"></path><path d="M343.44,175.53s-13.88,113.14-15.55,116.93c-1.67,3.79-2,14.28-2,14.28,0,0,15.46,3.42,17.01,.94,1.55-2.49,9.97-92.46,11.44-108.1,1.47-15.65,4.38-18.66,.77-22.29-3.61-3.63-11.67-1.75-11.67-1.75Z" style="fill:#263238; stroke:#263238; stroke-miterlimit:10;"></path><path d="M303.78,183.33s-28.23,45.79-33.78,65.85c-5.54,20.06-21.84,47.73-21.84,47.73,0,0,5.63,18.61,10.19,12.88,4.55-5.73,41.52-91.41,46.51-102.11,4.99-10.7,5.21-29.15-1.08-24.35Z" style="fill:#263238; stroke:#263238; stroke-miterlimit:10;"></path><path d="M314.13,190.36s-34.6,74.32-35.88,78.09-12.34,32.76-12.34,32.76c0,0-3.05,4.31,.72,5.59s7.28,1.67,7.28,1.67l11.58-16.08s21.02-60.05,25.12-70.49c4.1-10.43,10.76-28.41,9.33-29.91-1.42-1.5-5.81-1.63-5.81-1.63Z" style="fill:#e3e3e3; stroke:#263238; stroke-miterlimit:10;"></path><path d="M259.35,180.88s-.65,85.13-2.62,96.26c-1.96,11.13-2.62,24.88-2.62,24.88h7.2c2.62,0,9.82-53.7,9.82-75.96s2.62-39.94,1.96-47.8c-.65-7.86-11.13-7.86-11.13-7.86l-2.62,10.48Z" style="fill:#e3e3e3; stroke:#263238; stroke-miterlimit:10;"></path><path d="M282.26,176.95s-3.27,113.94-4.58,117.87c-1.31,3.93-.65,14.41-.65,14.41,0,0,15.72,1.96,17.03-.65,1.31-2.62,1.31-92.98,1.31-108.7s2.62-18.99-1.31-22.26-11.79-.65-11.79-.65Z" style="fill:#e3e3e3; stroke:#263238; stroke-miterlimit:10;"></path><path d="M248.46,305.8s11.93-113.36,13.53-117.18c1.6-3.82,1.75-14.31,1.75-14.31,0,0-15.52-3.15-17.03-.64-1.5,2.51-8.37,92.62-9.57,108.29-1.19,15.67-4.06,18.74-.39,22.3s11.7,1.55,11.7,1.55Z" style="fill:#e3e3e3; stroke:#263238; stroke-miterlimit:10;"></path><path d="M219.3,307.62s-12.87-113.26-12.13-117.33-1.39-14.35-1.39-14.35c0,0-15.84,.28-16.76,3.06-.93,2.78,11.85,92.24,14.07,107.79,2.22,15.56,.09,19.17,4.44,21.86,4.35,2.69,11.76-1.02,11.76-1.02Z" style="fill:#e3e3e3; stroke:#263238; stroke-miterlimit:10;"></path><path d="M197.1,204.35c1.81-.03,3.44,1.07,4.09,2.76,3.25,8.54,13.26,34.72,21.17,53.48,7.1,16.85,12.72,29.86,15.15,35.46,.77,1.78,.25,3.84-1.26,5.05l-2.77,2.21c-1.78,1.42-4.35,1.2-5.87-.49-1.09-1.22-2.31-2.58-3.26-3.6-2.22-2.4-29.66-77.26-32.73-81.55-1.31-1.83-2.82-4.47-4.12-6.9-1.52-2.82,.49-6.25,3.7-6.31l5.91-.11Z" style="fill:#e3e3e3; stroke:#263238; stroke-miterlimit:10;"></path><path d="M217.05,306.13s-27.49-94.6-30.76-100.85c-3.27-6.25-4.35-16.67-4.35-16.67l-7.75,1.45s-1.95,25.87,6.84,47.35c8.79,21.48,17.21,52.21,21.02,63.67,3.81,11.46,13.78,12.41,15,5.04Z" style="fill:#e3e3e3; stroke:#263238; stroke-miterlimit:10;"></path><path d="M256.07,316.09s32.78-92.9,33.76-99.88c.98-6.98,6.18-16.08,6.18-16.08l-7.15-3.33s-16.66,19.89-22.04,42.47c-5.37,22.58-16.44,52.46-20.02,63.99-3.58,11.53,3.97,18.11,9.25,12.84Z" style="fill:#e3e3e3; stroke:#263238; stroke-miterlimit:10;"></path><path d="M331.95,173.46s-30.17,93.78-30.95,100.79c-.78,7.01-5.73,16.25-5.73,16.25l7.24,3.13s16.1-20.35,20.83-43.07,14.96-52.9,18.21-64.53c3.26-11.63-4.48-18-9.61-12.57Z" style="fill:#263238; stroke:#263238; stroke-miterlimit:10;"></path><path d="M367.31,204.89s-30.17,93.78-30.95,100.79c-.78,7.01-5.73,16.25-5.73,16.25l7.24,3.13s16.1-20.35,20.83-43.07c4.74-22.72,14.96-52.9,18.21-64.53s-4.48-18-9.61-12.57Z" style="fill:#e3e3e3; stroke:#263238; stroke-miterlimit:10;"></path><path d="M358.13,180.06s-28.23,45.79-33.78,65.85c-5.54,20.06-21.84,47.73-21.84,47.73,0,0,5.63,18.61,10.19,12.88,4.55-5.73,41.52-91.41,46.51-102.11,4.99-10.7,5.21-29.15-1.08-24.35Z" style="fill:#e3e3e3; stroke:#263238; stroke-miterlimit:10;"></path><path d="M368.48,187.08s-34.6,74.32-35.88,78.09-12.34,32.76-12.34,32.76c0,0-3.05,4.31,.72,5.59s7.28,1.67,7.28,1.67l11.58-16.08s21.02-60.05,25.12-70.49c4.1-10.43,10.76-28.41,9.33-29.91-1.42-1.5-5.81-1.63-5.81-1.63Z" style="fill:#e3e3e3; stroke:#263238; stroke-miterlimit:10;"></path><path d="M338.52,183.59s-34.6,74.32-35.88,78.09c-1.28,3.77-12.34,32.76-12.34,32.76,0,0-3.05,4.31,.72,5.59s7.28,1.67,7.28,1.67l11.58-16.08s21.02-60.05,25.12-70.49c4.1-10.43,10.76-28.41,9.33-29.91-1.42-1.5-5.81-1.63-5.81-1.63Z" style="fill:#e3e3e3; stroke:#263238; stroke-miterlimit:10;"></path><path d="M313.7,177.6s-.65,85.13-2.62,96.26c-1.96,11.13-2.62,24.88-2.62,24.88h7.2c2.62,0,9.82-53.7,9.82-75.96s2.62-39.94,1.96-47.8c-.65-7.86-11.13-7.86-11.13-7.86l-2.62,10.48Z" style="fill:#e3e3e3; stroke:#263238; stroke-miterlimit:10;"></path><path d="M272.24,179.6s-.65,85.13-2.62,96.26c-1.96,11.13-2.62,24.88-2.62,24.88h7.2c2.62,0,9.82-53.7,9.82-75.96s2.62-39.94,1.96-47.8c-.65-7.86-11.13-7.86-11.13-7.86l-2.62,10.48Z" style="fill:#e3e3e3; stroke:#263238; stroke-miterlimit:10;"></path><path d="M305.62,310.15s11.93-113.36,13.53-117.18,1.75-14.31,1.75-14.31c0,0-15.52-3.15-17.03-.64-1.5,2.51-8.37,92.62-9.57,108.29-1.19,15.67-4.06,18.74-.39,22.3,3.67,3.56,11.7,1.55,11.7,1.55Z" style="fill:#e3e3e3; stroke:#263238; stroke-miterlimit:10;"></path></g><g><path d="M346.78,253.56c-5.5,22.35-35.26,39.43-71.14,39.43s-65.64-17.08-71.14-39.43h-20.45l9.16,170.25h164.87l9.16-170.25h-20.45Z" style="fill:#92E3A9; stroke:#263238; stroke-miterlimit:10;"></path><path d="M218.67,423.81h113.94v-149.02c-13.18,11.07-33.79,18.2-56.97,18.2s-43.79-7.13-56.97-18.2v149.02Z" style="fill:#fff; stroke:#263238; stroke-miterlimit:10;"></path></g></g></g><g id="freepik--Burger--inject-339"><g><g><path d="M355.61,281.31s-33.22,1.69-53.5,12.39c-20.27,10.7-25.9,17.46-29.28,23.65s-3.38,16.33-3.1,18.02c.28,1.69,2.25,2.25,3.94,2.25s175.98-2.53,180.48-2.25c4.51,.28,7.04-2.25,5.35-7.88-1.69-5.63-5.63-19.99-31.82-31.25-26.19-11.26-56.88-17.46-72.08-14.92Z" style="fill:#e3e3e3; stroke:#263238; stroke-miterlimit:10;"></path><g><path d="M367.03,296.09s-2.69,1.79-1.64,4.19c1.05,2.39,2.99,1.64,2.99,1.64,0,0,1.94,0,1.35-2.69s-2.69-3.14-2.69-3.14Z" style="fill:#fff;"></path><path d="M376.9,302.52s-2.39,1.35-2.24,3.59,2.54,3.74,3.29,1.35c.75-2.39,.75-6.43-1.05-4.93Z" style="fill:#fff;"></path><path d="M389.01,298.64s-1.64,2.24-1.2,3.29c.45,1.05,2.54,2.54,2.84,1.64s1.79-1.35,.9-3.74-2.09-1.94-2.54-1.2Z" style="fill:#fff;"></path><path d="M400.22,306.56c-.9,.15-1.2,1.79-.9,2.84,.3,1.05,4.04,3.59,4.78,2.39,.75-1.2-.45-3.44-1.5-4.34-1.05-.9-2.39-.9-2.39-.9Z" style="fill:#fff;"></path><path d="M419.81,306.86s-.6-2.39-2.69-2.69c-2.09-.3-2.54,.15-1.94,1.05,.6,.9,2.54,4.19,3.74,3.89,1.2-.3,.9-2.24,.9-2.24Z" style="fill:#fff;"></path><path d="M431.32,306.56s-1.05,2.69,0,4.19c1.05,1.5,3.74,3.14,3.44,.6-.3-2.54-.9-3.59-1.79-4.34-.9-.75-1.49-1.64-1.64-.45Z" style="fill:#fff;"></path><path d="M424.74,302.67s-.15-1.35-3.44-3.29-2.99-.3-1.35,1.64c1.64,1.94,4.78,1.64,4.78,1.64Z" style="fill:#fff;"></path><path d="M406.65,294.75s-1.64,.9-1.05,2.39c.6,1.5,4.04,3.29,4.34,2.09,.3-1.2,.6-1.79-.6-3.44-1.2-1.64-2.69-1.05-2.69-1.05Z" style="fill:#fff;"></path><path d="M386.02,291.31s-2.84-2.24-4.49-2.39c-1.64-.15-2.99,.75-2.09,1.35,.9,.6,1.94,1.94,3.59,2.09s2.99-1.05,2.99-1.05Z" style="fill:#fff;"></path><path d="M372.42,289.67s-4.63-.9-6.43-.45-2.99-.45-1.79,.45c1.2,.9,2.99,1.64,4.04,1.35,1.05-.3,4.19-1.35,4.19-1.35Z" style="fill:#fff;"></path><path d="M354.03,291.61s-4.49-.45-5.53,0c-1.05,.45-1.5,1.2-.75,1.64,.75,.45,3.29,2.84,5.38,1.79,2.09-1.05,2.54-3.74,.9-3.44Z" style="fill:#fff;"></path><path d="M345.06,287.42s-.6,1.2-2.09,2.39c-1.49,1.2,0,2.39,.75,2.39s3.29-1.35,4.04-2.54c.75-1.2,2.09-2.69,.75-3.14s-3.44,.9-3.44,.9Z" style="fill:#fff;"></path><path d="M340.57,292.8c-.75,.13-7.03,1.5-7.18,2.39-.15,.9-1.79,.3-2.09,1.64-.3,1.35,1.2,4.34,2.39,4.19,1.2-.15,1.79-3.44,1.79-3.44,0,0,1.35-.45,2.69-1.5,1.35-1.05,5.08-3.74,2.39-3.29Z" style="fill:#fff;"></path><path d="M287.2,307.16s-2.84,5.98-1.49,5.38c1.35-.6,5.23-2.69,4.78-4.34-.45-1.64-2.39-2.39-3.29-1.05Z" style="fill:#fff;"></path><path d="M281.22,313.89s-3.14,3.44-2.09,4.49c1.05,1.05,2.84,.15,3.59-2.54,.75-2.69-.9-3.14-1.5-1.94Z" style="fill:#fff;"></path><path d="M286.6,314.93s-1.05,3.59,.15,4.49c1.2,.9,2.69-.45,2.69-3.29s-1.79-3.59-2.84-1.2Z" style="fill:#fff;"></path><path d="M312.91,292.21s-4.04,1.94-2.54,2.54c1.5,.6,7.48-1.2,7.03-2.24-.45-1.05-4.49-.3-4.49-.3Z" style="fill:#fff;"></path><path d="M320.09,287.72s-1.2,1.64-3.14,1.5,.45-2.54,3.14-1.5Z" style="fill:#fff;"></path><path d="M337.43,287.12s-5.38,1.64-4.04,3.14c1.35,1.49,5.98-.6,6.73-1.64,.75-1.05-2.69-1.5-2.69-1.5Z" style="fill:#fff;"></path><path d="M371.82,280.69s-5.38,1.05-4.49,2.09c.9,1.05,5.68,.15,6.58-.75,.9-.9,0-1.05-2.09-1.35Z" style="fill:#fff;"></path><path d="M397.23,287.57s-5.38,.45-4.49,1.5c.9,1.05,6.13,1.2,7.18,0,1.05-1.2-2.69-1.5-2.69-1.5Z" style="fill:#fff;"></path><path d="M416.07,292.95s1.94,0-1.35-1.94c-3.29-1.94-4.93-1.5-3.74,0,1.2,1.5,3.59,2.24,5.08,1.94Z" style="fill:#fff;"></path><path d="M434.16,301.63s-4.19-4.63-5.98-4.04,.6,3.14,1.94,3.74c1.35,.6,3.59,1.79,4.04,.3Z" style="fill:#fff;"></path><path d="M344.01,281.44s-6.73,.15-5.38,1.5,9.12-.15,9.57-.75-4.19-.75-4.19-.75Z" style="fill:#fff;"></path><path d="M297.96,296.24s-5.23,1.79-5.08,3.29,3.29,.45,4.78-1.05c1.5-1.5,2.39-3.14,.3-2.24Z" style="fill:#fff;"></path></g></g><path d="M254.83,403.07s2.17,17.12,6.72,23.41c4.55,6.29,9.97,10.19,12.57,10.62,2.6,.43,62.86,8.02,116.19,4.34,53.32-3.69,60.26-5.64,65.46-13.66,5.2-8.02,6.94-23.63,6.94-23.63l-207.88-1.08Z" style="fill:#e3e3e3; stroke:#263238; stroke-miterlimit:10;"></path><g><path d="M252.66,377.06s-5.2,2.6-8.24,3.68c-3.03,1.08-6.07,7.37-4.99,9.97l1.08,2.6s-1.73,4.99,2.82,7.59,7.59,2.6,7.59,2.6c0,0,9.54,4.34,12.36,4.55,2.82,.22,5.42-.43,5.42-.43,0,0,.65,.65,3.9,1.3s5.2,.43,5.2,.43c0,0,7.8,1.52,11.27,1.52s8.45-1.3,8.45-1.3c0,0,1.3,1.73,4.99,1.52,3.68-.22,9.97-1.08,11.27-1.52,1.3-.43,6.07-1.95,6.07-1.95,0,0,3.68,2.38,10.19,1.95,6.5-.43,13.44-3.03,13.44-3.03l4.12,.43s5.64,1.08,7.59-.22,3.03-1.3,3.03-1.3c0,0,8.24,2.38,19.94,2.38s22.11-.65,22.11-.65c0,0,8.45,1.3,12.57,1.3h10.19l14.74-.22,9.1-1.08,4.99,.43,10.62-.22s.65-1.08,3.9-1.3,4.77-.43,4.77-.43l2.82-1.3,2.17-1.95,.87-3.25,1.3-3.69,1.3-3.47,.22-3.68-1.08-3.69-1.73-3.47-2.38-1.95-2.6-1.52-2.82-.43-11.06-.87-141.33-1.08-58.31,.87-5.85,.87Z" style="fill:#969696; stroke:#263238; stroke-miterlimit:10;"></path><path d="M261.55,382.48s7.37,3.9,13.01,10.19,4.55,9.75,4.55,10.84,0,2.17,.87,3.25c.87,1.08,2.38,2.38,2.38,2.38l3.9,.65,3.25-1.73,2.38-3.03,.43-2.82-.87-6.72-2.6-3.69-2.6-2.17-6.29-3.25s1.52,1.3-2.82-2.17c-4.34-3.47-.51,1.95-4.05-2.39-3.54-4.33-5.06-3.47,6.87-4.77,11.92-1.3,54.84,4.55,54.84,4.55,0,0,9.1,9.54,9.54,13.66,.43,4.12,0,6.5,0,6.5l6.94,3.03s5.42-.43,7.15-1.08c1.73-.65,3.69-1.52,3.69-1.52l.87-4.12-1.3-4.55-3.03-3.9-6.07-4.55-6.94-3.69-3.68-1.95-2.6-1.08,22.98,.43s31.65-1.73,39.88,3.03c8.24,4.77,11.06,10.4,11.06,10.4l2.17,5.2,1.73,4.77,4.77,.87s1.95,.22,3.03-.87,1.08-2.38,1.08-2.38l-.65-4.99-2.38-4.55s-4.55-4.12-6.5-4.99c-1.95-.87-5.85-3.47-5.85-3.47l4.77-2.17,30.56,1.95,8.45,5.85,2.38,5.64,.65,6.07,.87,1.73,3.9,1.3,2.17-3.9v-5.2l-3.47-6.94-9.32-4.77s-5.85-3.25-7.15-3.47c-1.3-.22-10.84-.22-10.84-.22l35.55,1.95s5.42,9.97,5.64,12.57c.22,2.6,0,4.77,0,4.77l1.3-2.38,.22-8.45-1.95-4.12-3.03-2.82s-6.5-1.08-13.22-2.82c-6.72-1.73-8.45-1.73-17.12-2.38-8.67-.65-179.27,.22-179.27,.22,0,0-2.82,4.77-.22,8.24Z" style="opacity:.32;"></path><path d="M250.93,393.75c0,.84-.68,1.52-1.52,1.52s-1.52-.68-1.52-1.52,.68-1.52,1.52-1.52,1.52,.68,1.52,1.52Z" style="fill:none; stroke:#263238; stroke-miterlimit:10;"></path><circle cx="258.41" cy="399.06" r="1.19" style="fill:none; stroke:#263238; stroke-miterlimit:10;"></circle><path d="M257.43,387.68c0,.6-.49,1.08-1.08,1.08s-1.08-.49-1.08-1.08,.49-1.08,1.08-1.08,1.08,.49,1.08,1.08Z" style="fill:none; stroke:#263238; stroke-miterlimit:10;"></path><path d="M269.57,398.63c0,1.02-.83,1.84-1.84,1.84s-1.84-.82-1.84-1.84,.82-1.84,1.84-1.84,1.84,.83,1.84,1.84Z" style="fill:none; stroke:#263238; stroke-miterlimit:10;"></path><path d="M300.79,391.26c0,.9-.73,1.63-1.63,1.63s-1.63-.73-1.63-1.63,.73-1.63,1.63-1.63,1.63,.73,1.63,1.63Z" style="fill:none; stroke:#263238; stroke-miterlimit:10;"></path><path d="M306.21,399.93c0,.42-.34,.76-.76,.76s-.76-.34-.76-.76,.34-.76,.76-.76,.76,.34,.76,.76Z" style="fill:none; stroke:#263238; stroke-miterlimit:10;"></path><circle cx="298.29" cy="405.35" r="1.19" style="fill:none; stroke:#263238; stroke-miterlimit:10;"></circle><path d="M317.69,401.66c0,.54-.44,.98-.98,.98s-.98-.44-.98-.98,.44-.98,.98-.98,.98,.44,.98,.98Z" style="fill:none; stroke:#263238; stroke-miterlimit:10;"></path><path d="M323.98,389.63c0,1.2-.97,2.17-2.17,2.17s-2.17-.97-2.17-2.17,.97-2.17,2.17-2.17,2.17,.97,2.17,2.17Z" style="fill:none; stroke:#263238; stroke-miterlimit:10;"></path><path d="M334.17,399.39c0,.6-.49,1.08-1.08,1.08s-1.08-.49-1.08-1.08,.49-1.08,1.08-1.08,1.08,.49,1.08,1.08Z" style="fill:none; stroke:#263238; stroke-miterlimit:10;"></path><circle cx="381.32" cy="399.5" r="1.41" style="fill:none; stroke:#263238; stroke-miterlimit:10;"></circle><path d="M372.54,402.42c0,.48-.39,.87-.87,.87s-.87-.39-.87-.87,.39-.87,.87-.87,.87,.39,.87,.87Z" style="fill:none; stroke:#263238; stroke-miterlimit:10;"></path><path d="M375.35,390.5c0,.6-.49,1.08-1.08,1.08s-1.08-.49-1.08-1.08,.49-1.08,1.08-1.08,1.08,.49,1.08,1.08Z" style="fill:none; stroke:#263238; stroke-miterlimit:10;"></path><path d="M397.9,398.3c0,.24-.19,.43-.43,.43s-.43-.19-.43-.43,.19-.43,.43-.43,.43,.19,.43,.43Z" style="fill:none; stroke:#263238; stroke-miterlimit:10;"></path><path d="M388.14,401.66c0,.54-.44,.98-.98,.98s-.98-.44-.98-.98,.44-.98,.98-.98,.98,.44,.98,.98Z" style="fill:none; stroke:#263238; stroke-miterlimit:10;"></path><path d="M437.57,399.71c0,.54-.44,.98-.98,.98s-.98-.44-.98-.98,.44-.98,.98-.98,.98,.44,.98,.98Z" style="fill:none; stroke:#263238; stroke-miterlimit:10;"></path><path d="M433.45,392.02c0,.84-.68,1.52-1.52,1.52s-1.52-.68-1.52-1.52,.68-1.52,1.52-1.52,1.52,.68,1.52,1.52Z" style="fill:none; stroke:#263238; stroke-miterlimit:10;"></path><circle cx="452.74" cy="402.21" r="1.3" style="fill:none; stroke:#263238; stroke-miterlimit:10;"></circle><path d="M451.87,392.78c0,.66-.53,1.19-1.19,1.19s-1.19-.53-1.19-1.19,.53-1.19,1.19-1.19,1.19,.53,1.19,1.19Z" style="fill:none; stroke:#263238; stroke-miterlimit:10;"></path><path d="M472.25,395.6c0,.42-.34,.76-.76,.76s-.76-.34-.76-.76,.34-.76,.76-.76,.76,.34,.76,.76Z" style="fill:none; stroke:#263238; stroke-miterlimit:10;"></path><path d="M469.65,401.77c0,.48-.39,.87-.87,.87s-.87-.39-.87-.87,.39-.87,.87-.87,.87,.39,.87,.87Z" style="fill:none; stroke:#263238; stroke-miterlimit:10;"></path></g><path d="M339,380.14s22.05,.61,35.06,.82c13.01,.22,29.05,2.38,29.7,2.82,.65,.43,3.03,1.3,3.9,1.3s6.07-1.95,6.07-1.95l5.42,.65,6.29-1.95,7.8,1.3,8.45-1.95,6.07,2.17,3.9-1.95,4.77,1.95,3.03-1.52,4.55,2.38,4.55-1.95,2.38,.22s1.73-13.66,.43-14.09c-1.3-.43-2.86-.64-2.86-.64l-129.58-1.74,.06,14.13Z" style="fill:#92E3A9; stroke:#263238; stroke-miterlimit:10;"></path><g><g><path d="M350.43,369.04s-.17,16.08,.22,19.08c.44,3.37,5.63,6.12,8.67,2.41,1.76-2.14,.86-9.13,3.03-9.56,2.17-.43,3.47,1.52,7.15,1.52s6.72-1.08,6.72-1.08c0,0,1.3,3.03,8.24,3.9,6.94,.87,7.8-1.08,8.89-4.12,1.08-3.03,3.68-5.85,8.67-6.29,4.99-.43,6.07-2.82,7.59-3.68,1.52-.87,5.64-2.38,5.64-2.38l1.08-4.12-68.5-.43,2.6,4.77Z" style="fill:#858585; stroke:#263238; stroke-miterlimit:10;"></path><path d="M355.53,384.72c0,1.4-.54,2.53-1.21,2.53s-1.21-1.13-1.21-2.53,.54-2.53,1.21-2.53,1.21,1.13,1.21,2.53Z" style="fill:#fff;"></path><path d="M379.85,379.1c0,1.4-.54,2.53-1.21,2.53s-1.21-1.13-1.21-2.53,.54-2.53,1.21-2.53,1.21,1.13,1.21,2.53Z" style="fill:#fff;"></path></g><path d="M394.75,366.91s-.56,2.82,34.91,2.82,38.86-1.97,38.86-1.97l-3.66-11.83-14.92,1.69-50.68-3.1-4.51,12.39Z" style="fill:#fff; stroke:#263238; stroke-miterlimit:10;"></path><line x1="458.95" y1="361.28" x2="460.63" y2="368.31" style="fill:none; stroke:#263238; stroke-miterlimit:10;"></line><line x1="446.27" y1="361.28" x2="447.12" y2="365.5" style="fill:none; stroke:#263238; stroke-miterlimit:10;"></line><line x1="426.85" y1="369.16" x2="425.72" y2="362.4" style="fill:none; stroke:#263238; stroke-miterlimit:10;"></line></g><path d="M269.57,366.01s21.89,6.5,31.21,7.15c9.32,.65,30.78-2.82,30.78-2.82,0,0,11.06,1.73,14.74,1.73s11.06-3.25,11.06-3.25c0,0-13.87-12.14-24.28-12.14s-63.51,9.32-63.51,9.32Z" style="fill:#263238; stroke:#263238; stroke-miterlimit:10;"></path><path d="M256.78,366.34s-5.63,0-5.63,2.53,.56,8.73,1.97,10.42,1.97,2.25,2.82,2.53c.84,.28,4.22-1.69,4.22-1.69,0,0,1.69,1.97,2.82,1.69,1.13-.28,4.79-2.53,4.79-2.53,0,0,3.94,2.53,5.35,2.53s5.63-2.53,5.63-2.53c0,0,3.38,2.53,4.22,2.53s5.07-1.97,5.07-1.97l2.82,.84,3.1-1.13,3.1,1.13,3.94-1.13s4.51,.84,5.35,1.13c.84,.28,4.79-1.41,4.79-1.41l2.53,1.13,4.22-1.69s2.53,.56,3.38,.84c.84,.28,4.51-1.13,5.35-.56,.84,.56,2.53,1.69,3.38,1.69s5.07-1.13,5.07-1.13l3.94,.56,1.69-3.1-1.13-9.57-21.68,.56-10.7,3.1s-8.73-.56-11.83-.56-12.39-1.41-14.36-1.69l-24.21-2.53Z" style="fill:#92E3A9; stroke:#263238; stroke-miterlimit:10;"></path><g><path d="M321.26,360.99s21.68,11.26,52.09,10.14,37.73-3.94,37.73-3.94v-10.98s-29.85,2.82-54.34,1.13c-24.5-1.69-31.25-7.04-31.25-7.04l-4.22,10.7Z" style="fill:#fff; stroke:#263238; stroke-miterlimit:10;"></path><line x1="366.31" y1="358.18" x2="365.47" y2="365.22" style="fill:#fff; stroke:#263238; stroke-miterlimit:10;"></line><line x1="378.14" y1="358.74" x2="378.14" y2="364.09" style="fill:none; stroke:#263238; stroke-miterlimit:10;"></line><line x1="373.35" y1="371.13" x2="373.07" y2="363.53" style="fill:none; stroke:#263238; stroke-miterlimit:10;"></line><line x1="385.74" y1="359.59" x2="386.3" y2="364.94" style="fill:none; stroke:#263238; stroke-miterlimit:10;"></line><line x1="402.07" y1="363.25" x2="402.63" y2="368.31" style="fill:none; stroke:#263238; stroke-miterlimit:10;"></line><line x1="393.62" y1="358.46" x2="393.62" y2="362.68" style="fill:none; stroke:#263238; stroke-miterlimit:10;"></line><line x1="352.79" y1="368.88" x2="353.64" y2="362.4" style="fill:none; stroke:#263238; stroke-miterlimit:10;"></line></g><g><g><path d="M305.35,362.4s-.03,.55-.06,1.44c-.12,3.15-.28,10.53,.68,12.62,1.24,2.69,5.58,2.27,7.03-1.24,1.45-3.52,1.24-6.2,2.89-6.2s2.48,.21,6.62-1.24,3.1-3.52,5.17-3.93c2.07-.41,4.14,0,5.79-1.86,1.65-1.86,2.48-3.93,2.48-3.93" style="fill:#858585; stroke:#263238; stroke-miterlimit:10;"></path><ellipse cx="307.07" cy="373.85" rx="1.21" ry="2.53" style="fill:#fff;"></ellipse></g><path d="M272.27,356.77s-11.83-1.97-12.67-.28-3.94,8.73-2.82,9.85c1.13,1.13-1.69,4.5,34.63-.56,36.32-5.07,81.09-10.42,83.06-11.26s4.51-.28,4.51-.28c0,0-9.01-7.04-35.76-7.6-26.75-.56-37.73,0-45.33,1.69-7.6,1.69-25.62,8.45-25.62,8.45Z" style="fill:#fff; stroke:#263238; stroke-miterlimit:10;"></path><line x1="274.8" y1="359.87" x2="275.65" y2="366.06" style="fill:none; stroke:#263238; stroke-miterlimit:10;"></line><line x1="289.72" y1="353.67" x2="291.69" y2="362.96" style="fill:none; stroke:#263238; stroke-miterlimit:10;"></line><line x1="283.53" y1="359.02" x2="284.37" y2="364.09" style="fill:none; stroke:#263238; stroke-miterlimit:10;"></line><line x1="297.89" y1="363.81" x2="296.48" y2="359.3" style="fill:none; stroke:#263238; stroke-miterlimit:10;"></line><line x1="310.56" y1="361.56" x2="308.87" y2="354.24" style="fill:none; stroke:#263238; stroke-miterlimit:10;"></line><line x1="320.41" y1="352.55" x2="321.26" y2="357.33" style="fill:none; stroke:#263238; stroke-miterlimit:10;"></line><line x1="263.82" y1="359.59" x2="262.97" y2="366.62" style="fill:none; stroke:#263238; stroke-miterlimit:10;"></line><line x1="349.13" y1="357.9" x2="348.01" y2="352.83" style="fill:none; stroke:#263238; stroke-miterlimit:10;"></line></g><g><path d="M271.14,340.16l-1.13,16.33s34.35-8.73,63.92-7.6c29.56,1.13,54.62,8.17,75.18,9.29,20.55,1.13,40.55,.56,40.83-.56,.28-1.13-3.1-13.8-3.1-13.8,0,0-70.95-14.64-107.56-15.49-36.6-.84-63.92,9.29-68.14,11.83Z" style="fill:#263238; stroke:#263238; stroke-miterlimit:10;"></path><path d="M409.11,345.79l1.69,7.6s-12.95,3.38-34.35,.28" style="fill:none; stroke:#263238; stroke-miterlimit:10;"></path></g><g><g><path d="M285.22,340.16s15.77-2.82,23.65-4.5,12.39-2.25,12.39-2.25c0,0,15.49-.56,24.5-.56s25.62,3.1,25.62,3.1c0,0,7.88,1.41,9.29,1.69,0,0,1.41-6.76-1.13-8.17-2.53-1.41-36.04-11.54-36.04-11.54,0,0-14.64-.28-18.02,.84-3.38,1.13-9.01,3.94-9.01,3.94l-6.48,3.1-10.14,2.25s-5.07,1.13-6.76,1.69c-1.69,.56-3.38,.84-3.38,.84,0,0-5.35,4.79-4.51,9.57Z" style="fill:#92E3A9; stroke:#263238; stroke-miterlimit:10;"></path><path d="M247.49,352.55s3.1-2.82,14.36-4.51,11.83-3.1,11.83-3.1c0,0-11.54-5.35-17.74-1.97s-8.45,9.57-8.45,9.57Z" style="fill:#263238; stroke:#263238; stroke-miterlimit:10;"></path><path d="M410.52,339.03s7.88,.56,13.23,3.38c5.35,2.82,9.01,3.1,13.8,3.38,4.79,.28,15.49-2.82,19.99-4.51,4.51-1.69,8.45-1.97,10.98-3.94,2.53-1.97,5.07-7.04,5.07-7.04,0,0-14.36-1.13-26.47,.84-12.11,1.97-21.12-.28-23.93-.56-2.82-.28-16.89,4.79-17.74,7.32-.84,2.53,5.07,1.13,5.07,1.13Z" style="fill:#263238; stroke:#263238; stroke-miterlimit:10;"></path><path d="M418.96,331.99s2.25,1.13,4.22,5.07c1.97,3.94,9.01,7.88,11.83,8.45s15.77-3.38,17.46-6.76,7.88-1.69,10.98-3.38c3.1-1.69,9.57-2.25,10.14-5.07,.56-2.82,1.41-2.82-1.41-1.97-2.82,.84-11.26,2.25-11.26,2.25l-3.1-.28s-.56-5.35-3.1-3.38l-2.53,1.97-5.07,2.25s-3.1-1.41-5.35-1.69l-2.25-.28s9.01-3.66,8.73-7.04c-.28-3.38-3.38-1.69-5.35-.56-1.97,1.13-6.19,3.66-6.19,3.66l-4.51,1.13-6.19,1.13h-3.94l-3.94,1.69-5.91-2.82s-1.13-1.13-5.07-.28c-3.94,.84-6.19,1.69-6.19,1.69,0,0-3.66,2.25-2.82,3.1s-.56,.84,2.53,1.41c3.1,.56,4.22,1.13,6.19,.84,1.97-.28,12.11-1.13,12.11-1.13Z" style="fill:#92E3A9; stroke:#263238; stroke-miterlimit:10;"></path><path d="M286.34,328.05s-5.35,2.53-9.01,.56c-3.66-1.97-9.85-12.39-12.39-9.85s-1.41,6.19-1.69,8.17c-.28,1.97-.28,1.69-3.94,3.94-3.66,2.25-4.51,3.38-3.66,5.35s1.41,3.38,.28,3.94c-1.13,.56-5.63,.28-7.32,1.69-1.69,1.41-1.97,1.69-3.1,3.94-1.13,2.25-.56,1.13-2.82,3.1-2.25,1.97-6.19-.84-2.25,1.97,3.94,2.82,7.32,2.25,9.85-.84,2.53-3.1,8.17-7.32,10.7-6.19s-.28,1.69,2.53,1.13c2.82-.56,7.04-.56,7.88,3.1s6.76,7.88,10.14,4.51c3.38-3.38,3.38-19.71,7.32-19.71s8.17,1.69,9.85,1.41c1.69-.28,3.38-2.82,5.35-1.97,1.97,.84,4.22,1.41,4.22,1.41l4.22-3.94s5.07-1.41,7.32-2.25,5.35-5.91,7.88-5.91,4.79,4.22,5.35,5.63c.56,1.41,4.51,.84,6.19,1.13,1.69,.28,9.85-7.6,12.67-5.07,2.82,2.53,3.66,6.48,5.07,7.04,1.41,.56,7.88-4.79,10.98-1.97,3.1,2.82,4.79,3.1,6.76,5.91,1.97,2.82,16.89,8.73,25.06,10.14,8.17,1.41,8.73,2.53,10.7-1.13,1.97-3.66,1.97-4.79,4.5-7.88s2.82-4.22,3.94-3.38c1.13,.84,1.13-2.82-.84-2.82s-8.17,1.13-10.42,1.13-2.53,2.25-4.22-.84c-1.69-3.1-4.79-5.63-4.79-5.63l-11.54-3.1-7.6,.84-9.29-.56-7.88-5.91-6.76-1.13-3.38,1.13s1.41-7.32-2.25-7.6c-3.66-.28-10.14,.56-10.14,.56l-3.1,2.25-3.1,2.53-3.1-3.66s-4.5-.84-5.35-.28c-.84,.56-4.22,.84-4.22,.84l-2.82-2.53s-7.04,1.69-7.6,3.1c-.56,1.41-1.13,5.07-1.13,5.07l-4.22,3.66s2.25,.84-5.07,1.69-9.01,2.53-9.01,2.53l-1.97,1.13-2.82,3.66Z" style="fill:#92E3A9; stroke:#263238; stroke-miterlimit:10;"></path><path d="M258.47,339.88s8.45-1.41,14.92-6.76" style="fill:none; stroke:#263238; stroke-miterlimit:10;"></path><line x1="286.34" y1="328.05" x2="285.22" y2="334.81" style="fill:none; stroke:#263238; stroke-miterlimit:10;"></line></g><path d="M289.72,330.58s3.63-7.36,11.95-7.36,12.3,.36,13.02,0c.72-.36,4.34-3.62,5.61-2.71,1.27,.9,.18,1.99,1.27,.9,1.09-1.09-2.35-7.78,2.53-6.15,4.88,1.63,9.41,7.23,9.41,7.23,0,0,3.26-6.51,3.62-4.88s.9,3.62,.9,3.62c0,0,5.34-5.56,5.47-3.32s-1.86,4.23-.41,4.23,4.52-1.63,4.52-1.63c0,0,3.98-1.45,5.79,0,1.81,1.45,9.41,3.26,10.13,4.34,.72,1.09,4.52,1.99,4.52,1.99l9.95,1.99s4.7,3.62,6.51,4.7c1.81,1.09,8.5-1.63,14.83-1.09l6.33,.54" style="fill:none; stroke:#263238; stroke-miterlimit:10;"></path><path d="M456.86,334.8s-18.63,3.44-31.29-.9" style="fill:none; stroke:#263238; stroke-miterlimit:10;"></path><path d="M423.58,335.7s8.68,2.89,13.75,4.52" style="fill:none; stroke:#263238; stroke-miterlimit:10;"></path><line x1="409.65" y1="336.07" x2="408.57" y2="340.41" style="fill:none; stroke:#263238; stroke-miterlimit:10;"></line><path d="M400.97,334.8s.18,3.26-.18,4.88" style="fill:none; stroke:#263238; stroke-miterlimit:10;"></path><path d="M394.82,334.98s-3.44,1.99-4.34,2.53" style="fill:none; stroke:#263238; stroke-miterlimit:10;"></path><path d="M280.69,333.9s-5.25,2.17-12.3,4.88" style="fill:none; stroke:#263238; stroke-miterlimit:10;"></path><path d="M283.77,335.7s-7.6,5.25-9.95,6.15" style="fill:none; stroke:#263238; stroke-miterlimit:10;"></path><path d="M283.95,340.41s-8.5,8.5-11.39,9.22" style="fill:none; stroke:#263238; stroke-miterlimit:10;"></path></g></g></g><g id="freepik--Donut--inject-339"><g><path d="M171.9,246.07c-34.62-11.98-82.56,1.33-101.2,11.98,0,0-51.93,26.63-57.26,78.57-5.33,51.93,33.29,101.2,103.87,114.52,70.58,13.32,118.51-55.93,118.51-105.2s-29.3-87.89-63.92-99.87Zm-39.39,121.67c-17.68,1.68-30.3-9.26-26.93-24.41,1.97-8.86,9.18-15.25,17.15-17.4,8.82-2.39,18.58,.39,23.25,10.67,4.21,9.26,4.21,29.46-13.47,31.14Z" style="fill:#92E3A9; stroke:#263238; stroke-miterlimit:10;"></path><path d="M230.99,344.18c-8.42-15.15-10.1-20.2-10.1-31.98s-6.73-24.41-12.63-28.62c-5.89-4.21-10.1-7.58-19.36-16.83-9.26-9.26-21.88-12.63-31.98-10.94-10.1,1.68-15.15,1.68-27.78,0-12.63-1.68-12.63-5.05-24.41-.84-11.78,4.21-34.51,11.78-34.51,11.78,0,0-24.41,10.1-28.62,21.04-4.21,10.94-1.68,31.14-5.05,39.56-3.37,8.42-12.63,5.05-8.42,24.41,4.21,19.36,10.94,30.3,10.94,39.56s15.15,26.09,28.62,26.09,22.73,2.52,35.35,12.63c12.63,10.1,22.73,13.47,38.72,5.05,15.99-8.42,35.35-7.58,43.77-8.42,8.42-.84,19.36-14.31,22.73-26.09,3.37-11.78,16.83-12.63,21.04-24.41,1.35-3.77,2.86-6.86,4.03-9.8,.81-3.49,1.43-6.94,1.84-10.35-.31-3.29-1.54-7.06-4.19-11.84Zm-79.96-.84c-5.89,4.21,.84,15.99-7.58,25.25-8.42,9.26-8.42-.84-10.94-.84-4.12,.39-7.96,.09-11.39-.78-3.75-.59-7.48-1.62-9.65-3.43-5.05-4.21-8.42-6.73-15.15-7.58-6.73-.84-.84-7.58,3.37-14.31,4.21-6.73,5.05-6.73,5.89-14.31,.84-7.58,12.63-8.42,12.63-8.42,0,0,5.05-2.53,15.15,0,10.1,2.53,7.58,7.58,15.99,9.26,8.42,1.68,7.58,10.94,1.68,15.15Z" style="fill:#fff; stroke:#263238; stroke-miterlimit:10;"></path><g><path d="M178.51,411.73c3.37-1.16,6.5-2.84,9.01-4.94,1.24-1.06,2.26-2.24,3.1-3.46,.78-1.24,1.29-2.54,1.58-3.85,.04-.34,.09-.67,.14-1l.14-.96,.19-1.13c.09-.74,.39-1.51,.69-2.27,.15-.38,.3-.75,.47-1.12l.64-1.03c1.78-2.76,4.2-4.39,6.22-5.58,4.1-2.24,7.54-3.62,10.34-5.58" style="fill:none; stroke:#263238; stroke-linecap:round; stroke-miterlimit:10; stroke-width:.75px;"></path><path d="M158.54,415.26c2.52-.44,5.05-.82,7.57-1.15l3.79-.46c1.13-.18,2.22-.26,3.3-.51" style="fill:none; stroke:#263238; stroke-linecap:round; stroke-miterlimit:10; stroke-width:.75px;"></path><path d="M209.55,387.03c4.1-2.1,7.92-4.92,10.41-8.82" style="fill:none; stroke:#263238; stroke-linecap:round; stroke-miterlimit:10; stroke-width:.75px;"></path><path d="M150.37,421.71c5.43-1.38,10.96-2.31,16.5-3.05,2.78-.39,5.56-.57,8.26-1.21,2.71-.6,5.36-1.43,7.9-2.55,5.03-2.2,9.77-5.66,12.33-10.57,.3-.62,.54-1.26,.82-1.89,.18-.66,.39-1.31,.54-1.98,.21-1.32,.31-2.76,.74-4.15,.91-2.8,3.32-4.76,5.77-6.07" style="fill:none; stroke:#263238; stroke-linecap:round; stroke-miterlimit:10; stroke-width:.75px;"></path><path d="M161.33,424.73c3.1-.52,6.22-.95,9.36-1.31,3.44-.38,7.07-1.1,10.48-2.25,3.44-1.15,6.8-2.69,9.93-4.82,3.12-2.11,6.07-4.85,8.19-8.45l.77-1.36,.63-1.46c.45-.96,.69-2.03,.98-3.06,.16-.51,.19-1.06,.28-1.59l.11-.8c.03-.22,.07-.65,.09-.66,.12-.37,.06-.85,.25-1.1,.16-.63,.58-1.09,1.36-1.76,.71-.64,1.98-1.32,3.23-1.99,2.68-1.36,5.91-2.8,9.03-4.88,3.13-2.05,6.1-4.86,8.24-8.15" style="fill:none; stroke:#263238; stroke-linecap:round; stroke-miterlimit:10; stroke-width:.75px;"></path></g><g><path d="M196.6,275.41c1.26,2.15,2.35,3.76,3.71,5.16,.68,.69,1.44,1.35,2.26,1.97l1.3,.93,1.63,1.11c2.18,1.53,4.37,3.19,6.46,5.24,2.07,2.04,4.07,4.55,5.4,7.63,1.35,3.06,1.83,6.6,1.47,9.76-.11,.78-.2,1.57-.35,2.33l-.52,2.19-.28,1.31c-.08,.46-.1,.95-.16,1.42-.28,3.95,.63,8.51,2.08,12.79" style="fill:none; stroke:#263238; stroke-linecap:round; stroke-miterlimit:10; stroke-width:.75px;"></path><path d="M174,256.52c4.03,.24,8.03,2,11.05,4.45,.72,.62,1.5,1.29,2.14,1.91l1.73,1.8c1.12,1.25,2.21,2.53,3.23,3.89" style="fill:none; stroke:#263238; stroke-linecap:round; stroke-miterlimit:10; stroke-width:.75px;"></path><path d="M213.66,323.06c.59,2.79,1.44,5.53,2.48,8.18,1.07,2.63,2.26,5.28,3.94,7.53" style="fill:none; stroke:#263238; stroke-linecap:round; stroke-miterlimit:10; stroke-width:.75px;"></path><path d="M162.61,263.64c3.08-1.62,6.53-2.64,10.05-2.57,1.76,0,3.49,.41,5.15,.97,.8,.36,1.61,.7,2.36,1.15,.71,.51,1.52,.9,2.14,1.51,2.66,2.27,4.89,4.93,6.94,7.73,2.04,2.81,3.58,5.93,5.55,8.71,.99,1.38,2.12,2.66,3.4,3.79,1.29,1.12,2.67,2.09,4.12,3.06,2.84,1.95,5.62,4.09,7.91,6.73,2.28,2.61,3.93,5.95,4.06,9.49,.09,1.75-.08,3.51-.52,5.2-.42,1.7-.78,3.32-.89,5.03" style="fill:none; stroke:#263238; stroke-linecap:round; stroke-miterlimit:10; stroke-width:.75px;"></path><path d="M174.15,266.43c.68,.06,1.29,.34,1.94,.52,.59,.33,1.24,.52,1.8,.97,.29,.2,.59,.36,.88,.58l.83,.73c.53,.39,1.22,1.21,1.83,1.82,2.52,2.69,4.44,5.45,6.43,8.86,1.02,1.7,2.17,3.65,3.69,5.55,1.51,1.9,3.33,3.59,5.2,4.99l1.42,1.01,1.2,.82c.79,.53,1.53,1.08,2.26,1.62,1.47,1.09,2.79,2.24,3.92,3.41,2.28,2.39,3.51,4.73,3.56,7.41,.04,1.39-.2,2.78-.62,4.44-.65,2.52-.89,4.99-.84,7.34,.09,4.71,1.1,9.01,2.4,13.18,.7,2.07,1.44,4.11,2.38,6.12,.97,2.04,1.87,3.94,3.56,6.18" style="fill:none; stroke:#263238; stroke-linecap:round; stroke-miterlimit:10; stroke-width:.75px;"></path></g><path d="M54.24,316.99c-.18,0-.37-.02-.55-.07-1.22-.3-1.96-1.54-1.65-2.75l3.37-13.47c.3-1.22,1.54-1.96,2.75-1.65,1.22,.3,1.96,1.54,1.65,2.75l-3.37,13.47c-.26,1.03-1.18,1.72-2.2,1.72Z" style="fill:#263238; stroke:#263238; stroke-miterlimit:10; stroke-width:.75px;"></path><path d="M128.31,298.47c-.18,0-.37-.02-.55-.07-1.22-.3-1.96-1.54-1.65-2.75l3.37-13.47c.3-1.22,1.54-1.96,2.75-1.65,1.22,.3,1.96,1.54,1.65,2.75l-3.37,13.47c-.26,1.03-1.18,1.72-2.2,1.72Z" style="fill:#92E3A9; stroke:#263238; stroke-miterlimit:10;"></path><path d="M151.87,288.37c-.18,0-.37-.02-.55-.07-1.22-.3-1.96-1.54-1.65-2.75l3.37-13.47c.3-1.22,1.54-1.96,2.75-1.65,1.22,.3,1.96,1.54,1.65,2.75l-3.37,13.47c-.26,1.03-1.18,1.72-2.2,1.72Z" style="fill:#263238; stroke:#263238; stroke-miterlimit:10; stroke-width:.75px;"></path><path d="M197.33,338.03c-.18,0-.37-.02-.55-.07-1.22-.3-1.96-1.54-1.65-2.75l3.37-13.47c.3-1.22,1.54-1.96,2.75-1.65,1.22,.3,1.96,1.54,1.65,2.75l-3.37,13.47c-.26,1.03-1.18,1.72-2.2,1.72Z" style="fill:#fff; stroke:#263238; stroke-miterlimit:10; stroke-width:.75px;"></path><path d="M151.87,364.12c-.18,0-.37-.02-.55-.07-1.22-.3-1.96-1.54-1.65-2.75l3.37-13.47c.3-1.22,1.54-1.96,2.75-1.65,1.22,.3,1.96,1.54,1.65,2.75l-3.37,13.47c-.26,1.03-1.18,1.72-2.2,1.72Z" style="fill:#92E3A9; stroke:#263238; stroke-miterlimit:10;"></path><path d="M165.34,330.46c-.18,0-.37-.02-.55-.07-1.22-.3-1.96-1.54-1.65-2.75l3.37-13.47c.3-1.22,1.54-1.96,2.75-1.65,1.22,.3,1.96,1.54,1.65,2.75l-3.37,13.47c-.26,1.03-1.18,1.72-2.2,1.72Z" style="fill:#263238; stroke:#263238; stroke-miterlimit:10; stroke-width:.75px;"></path><path d="M204.06,382.64c-.18,0-.37-.02-.55-.07-1.22-.3-1.96-1.54-1.65-2.75l3.37-13.47c.3-1.22,1.54-1.96,2.75-1.65,1.22,.3,1.96,1.54,1.65,2.75l-3.37,13.47c-.26,1.03-1.18,1.72-2.2,1.72Z" style="fill:#fff; stroke:#263238; stroke-miterlimit:10; stroke-width:.75px;"></path><path d="M178.29,380.41c-.18,0-.37-.02-.55-.07-1.22-.3-1.96-1.54-1.65-2.75l3.37-13.47c.3-1.22,1.54-1.96,2.75-1.65,1.22,.3,1.96,1.54,1.65,2.75l-3.37,13.47c-.26,1.03-1.18,1.72-2.2,1.72Z" style="fill:#92E3A9; stroke:#263238; stroke-miterlimit:10;"></path><path d="M160.22,298.64c.04-.18,.1-.35,.18-.53,.54-1.13,1.9-1.61,3.03-1.07l12.52,6c1.13,.54,1.61,1.9,1.07,3.03-.54,1.13-1.9,1.61-3.03,1.07l-12.52-6c-.96-.46-1.45-1.5-1.24-2.5Z" style="fill:#263238; stroke:#263238; stroke-miterlimit:10; stroke-width:.75px;"></path><path d="M109.72,264.13c.04-.18,.1-.35,.18-.53,.54-1.13,1.9-1.61,3.03-1.07l12.52,6c1.13,.54,1.61,1.9,1.07,3.03-.54,1.13-1.9,1.61-3.03,1.07l-12.52-6c-.96-.46-1.45-1.5-1.24-2.5Z" style="fill:#92E3A9; stroke:#263238; stroke-miterlimit:10;"></path><path d="M169.48,283.49c.04-.18,.1-.35,.18-.53,.54-1.13,1.9-1.61,3.03-1.07l12.52,6c1.13,.54,1.61,1.9,1.07,3.03-.54,1.13-1.9,1.61-3.03,1.07l-12.52-6c-.96-.46-1.45-1.5-1.24-2.5Z" style="fill:#fff; stroke:#263238; stroke-miterlimit:10; stroke-width:.75px;"></path><path d="M191.11,314.95c-.09-.16-.15-.33-.2-.52-.3-1.22,.43-2.45,1.65-2.75l13.47-3.37c1.22-.31,2.45,.43,2.75,1.65,.3,1.22-.43,2.45-1.65,2.75l-13.47,3.37c-1.03,.26-2.07-.23-2.55-1.13Z" style="fill:#fff; stroke:#263238; stroke-miterlimit:10; stroke-width:.75px;"></path><path d="M180.17,349.46c-.09-.16-.15-.33-.2-.52-.31-1.22,.43-2.45,1.65-2.75l13.47-3.37c1.22-.31,2.45,.43,2.75,1.65,.3,1.22-.43,2.45-1.65,2.75l-13.47,3.37c-1.03,.26-2.07-.23-2.55-1.13Z" style="fill:#263238; stroke:#263238; stroke-miterlimit:10; stroke-width:.75px;"></path><path d="M79.49,396.95c-.18,0-.37-.02-.55-.07-1.22-.3-1.96-1.54-1.65-2.75l3.37-13.47c.3-1.22,1.54-1.96,2.75-1.65,1.22,.3,1.96,1.54,1.65,2.75l-3.37,13.47c-.26,1.03-1.18,1.72-2.2,1.72Z" style="fill:#92E3A9; stroke:#263238; stroke-miterlimit:10;"></path><path d="M47.5,389.38c-.18,0-.37-.02-.55-.07-1.22-.3-1.96-1.54-1.65-2.75l3.37-13.47c.3-1.22,1.54-1.96,2.75-1.65,1.22,.3,1.96,1.54,1.65,2.75l-3.37,13.47c-.26,1.03-1.18,1.72-2.2,1.72Z" style="fill:#92E3A9; stroke:#263238; stroke-miterlimit:10;"></path><path d="M42.38,357.56c.04-.18,.1-.35,.18-.53,.54-1.13,1.9-1.61,3.03-1.07l12.52,6c1.13,.54,1.61,1.9,1.07,3.03-.54,1.13-1.9,1.61-3.03,1.07l-12.52-6c-.96-.46-1.45-1.5-1.24-2.5Z" style="fill:#fff; stroke:#263238; stroke-miterlimit:10; stroke-width:.75px;"></path><path d="M51.64,342.41c.04-.18,.1-.35,.18-.53,.54-1.13,1.9-1.61,3.03-1.07l12.52,6c1.13,.54,1.61,1.9,1.07,3.03-.54,1.13-1.9,1.61-3.03,1.07l-12.52-6c-.96-.46-1.45-1.5-1.24-2.5Z" style="fill:#92E3A9; stroke:#263238; stroke-miterlimit:10;"></path><path d="M73.28,373.87c-.09-.16-.15-.33-.2-.52-.3-1.22,.43-2.45,1.65-2.75l13.47-3.37c1.22-.31,2.45,.43,2.75,1.65,.3,1.22-.43,2.45-1.65,2.75l-13.47,3.37c-1.03,.26-2.07-.23-2.55-1.13Z" style="fill:#263238; stroke:#263238; stroke-miterlimit:10; stroke-width:.75px;"></path><path d="M62.33,408.38c-.09-.16-.15-.33-.2-.52-.31-1.22,.43-2.45,1.65-2.75l13.47-3.37c1.22-.31,2.45,.43,2.75,1.65,.31,1.22-.43,2.45-1.65,2.75l-13.47,3.37c-1.03,.26-2.07-.23-2.55-1.13Z" style="fill:#fff; stroke:#263238; stroke-miterlimit:10; stroke-width:.75px;"></path><path d="M117.45,407.32c.07-.17,.15-.33,.26-.49,.72-1.03,2.14-1.27,3.16-.55l11.35,7.99c1.03,.72,1.27,2.14,.55,3.16-.72,1.03-2.14,1.27-3.16,.55l-11.35-7.99c-.87-.61-1.18-1.72-.81-2.67Z" style="fill:#92E3A9; stroke:#263238; stroke-miterlimit:10;"></path><path d="M136.02,380.2c.07-.17,.15-.33,.26-.49,.72-1.03,2.14-1.27,3.16-.55l11.35,7.99c1.03,.72,1.27,2.14,.55,3.16-.72,1.03-2.14,1.27-3.16,.55l-11.35-7.99c-.87-.61-1.18-1.72-.81-2.67Z" style="fill:#fff; stroke:#263238; stroke-miterlimit:10; stroke-width:.75px;"></path><path d="M91.41,407.14c.07-.17,.15-.33,.26-.49,.72-1.03,2.14-1.27,3.16-.55l11.35,7.99c1.03,.72,1.27,2.14,.55,3.16-.72,1.03-2.14,1.27-3.16,.55l-11.35-7.99c-.87-.61-1.18-1.72-.81-2.67Z" style="fill:#92E3A9; stroke:#263238; stroke-miterlimit:10;"></path><path d="M167.55,386.88c.15,.1,.3,.22,.43,.36,.86,.91,.82,2.35-.09,3.21l-10.1,9.52c-.91,.86-2.35,.82-3.21-.09-.86-.91-.82-2.35,.09-3.21l10.1-9.52c.77-.73,1.92-.81,2.78-.26Z" style="fill:#fff; stroke:#263238; stroke-miterlimit:10; stroke-width:.75px;"></path><path d="M178.36,400.97c.15,.1,.3,.22,.43,.36,.86,.91,.82,2.35-.09,3.21l-10.1,9.52c-.91,.86-2.35,.82-3.21-.09-.86-.91-.82-2.35,.09-3.21l10.1-9.52c.77-.73,1.92-.81,2.78-.26Z" style="fill:#263238; stroke:#263238; stroke-miterlimit:10; stroke-width:.75px;"></path><path d="M141.22,409.83c.18-.02,.37-.02,.56,0,1.24,.15,2.13,1.29,1.98,2.53l-1.7,13.78c-.15,1.24-1.28,2.13-2.53,1.97-1.24-.15-2.13-1.29-1.98-2.53l1.7-13.78c.13-1.06,.96-1.85,1.97-1.98Z" style="fill:#263238; stroke:#263238; stroke-miterlimit:10; stroke-width:.75px;"></path><path d="M112.96,387.2c.18-.02,.37-.02,.56,0,1.24,.15,2.13,1.29,1.98,2.53l-1.7,13.78c-.15,1.24-1.28,2.13-2.53,1.97-1.24-.15-2.13-1.29-1.98-2.53l1.7-13.78c.13-1.06,.96-1.85,1.97-1.98Z" style="fill:#263238; stroke:#263238; stroke-miterlimit:10; stroke-width:.75px;"></path><path d="M114.52,383.13c-.09-.16-.15-.33-.2-.52-.3-1.22,.43-2.45,1.65-2.75l13.47-3.37c1.22-.31,2.45,.43,2.75,1.65,.3,1.22-.43,2.45-1.65,2.75l-13.47,3.37c-1.03,.26-2.07-.23-2.55-1.13Z" style="fill:#92E3A9; stroke:#263238; stroke-miterlimit:10;"></path><path d="M97.14,375.88c-.09-.16-.15-.33-.2-.52-.31-1.22,.43-2.45,1.65-2.75l13.47-3.37c1.22-.31,2.45,.43,2.75,1.65,.31,1.22-.43,2.45-1.65,2.75l-13.47,3.37c-1.03,.26-2.07-.23-2.55-1.13Z" style="fill:#263238; stroke:#263238; stroke-miterlimit:10; stroke-width:.75px;"></path><path d="M134.97,311.26c.04-.18,.1-.35,.18-.53,.54-1.13,1.9-1.61,3.03-1.07l12.52,6c1.13,.54,1.61,1.9,1.07,3.03-.54,1.13-1.9,1.61-3.03,1.07l-12.52-6c-.96-.46-1.45-1.5-1.24-2.5Z" style="fill:#92E3A9; stroke:#263238; stroke-miterlimit:10;"></path><path d="M205.17,347.35c.04-.18,.1-.35,.18-.53,.54-1.13,1.9-1.61,3.03-1.07l12.52,6c1.13,.54,1.61,1.9,1.07,3.03-.54,1.13-1.9,1.61-3.03,1.07l-12.52-6c-.96-.46-1.45-1.5-1.24-2.5Z" style="fill:#92E3A9; stroke:#263238; stroke-miterlimit:10;"></path><path d="M74.44,297.63c-.18,0-.37-.02-.55-.07-1.22-.3-1.96-1.54-1.65-2.75l3.37-13.47c.3-1.22,1.54-1.96,2.75-1.65,1.22,.3,1.96,1.54,1.65,2.75l-3.37,13.47c-.26,1.03-1.18,1.72-2.2,1.72Z" style="fill:#fff; stroke:#263238; stroke-miterlimit:10; stroke-width:.75px;"></path><path d="M64.21,334.12c-.16-.08-.32-.18-.46-.31-.96-.81-1.07-2.24-.26-3.2l8.99-10.58c.81-.96,2.24-1.07,3.2-.26,.96,.81,1.07,2.24,.26,3.2l-8.99,10.58c-.69,.81-1.82,1.02-2.73,.57Z" style="fill:#263238; stroke:#263238; stroke-miterlimit:10; stroke-width:.75px;"></path><path d="M90.05,285.53c-.05-.17-.08-.36-.08-.55-.04-1.25,.95-2.3,2.2-2.34l13.88-.41c1.25-.04,2.3,.95,2.34,2.2,.04,1.25-.95,2.3-2.2,2.34l-13.88,.41c-1.06,.03-1.98-.67-2.25-1.65Z" style="fill:#263238; stroke:#263238; stroke-miterlimit:10; stroke-width:.75px;"></path><path d="M78.64,335.69c-.05-.17-.08-.36-.08-.55-.04-1.25,.95-2.3,2.2-2.34l13.88-.41c1.25-.04,2.3,.95,2.34,2.2,.04,1.25-.95,2.3-2.2,2.34l-13.88,.41c-1.06,.03-1.98-.67-2.25-1.65Z" style="fill:#fff; stroke:#263238; stroke-miterlimit:10; stroke-width:.75px;"></path><path d="M95.1,307.42c-.05-.18-.08-.36-.08-.55-.04-1.25,.95-2.3,2.2-2.34l13.88-.41c1.25-.04,2.3,.95,2.34,2.2,.04,1.25-.95,2.3-2.2,2.34l-13.88,.41c-1.06,.03-1.98-.67-2.25-1.65Z" style="fill:#fff; stroke:#263238; stroke-miterlimit:10; stroke-width:.75px;"></path><g><path d="M121.69,442.03c10.87,.98,22,0,32.72-2.41,10.65-2.52,20.88-6.83,29.43-13.26" style="fill:none; stroke:#263238; stroke-linecap:round; stroke-miterlimit:10; stroke-width:.75px;"></path><path d="M94.54,434.74c5.98,2.79,12.36,4.83,18.9,6.09" style="fill:none; stroke:#263238; stroke-linecap:round; stroke-miterlimit:10; stroke-width:.75px;"></path><path d="M181.01,433.88c1.39-.88,2.76-1.78,4.12-2.72,1.31-.99,2.66-1.93,3.9-3.02,2.53-2.09,4.91-4.39,6.97-6.94" style="fill:none; stroke:#263238; stroke-linecap:round; stroke-miterlimit:10; stroke-width:.75px;"></path><path d="M81.48,432.29c3.14,2.37,6.56,4.4,10.11,6.13,3.55,1.71,7.21,3.25,10.99,4.4,7.53,2.41,15.39,3.75,23.28,4.1,15.77,.61,31.81-1.98,46.28-8.39" style="fill:none; stroke:#263238; stroke-linecap:round; stroke-miterlimit:10; stroke-width:.75px;"></path><path d="M91.91,444.3c17.89,8.01,38.03,9.58,56.89,6.41,9.45-1.57,18.88-4.15,27.65-8.46,4.42-2.06,8.61-4.65,12.61-7.53,3.98-2.95,7.69-6.21,11-10.26" style="fill:none; stroke:#263238; stroke-linecap:round; stroke-miterlimit:10; stroke-width:.75px;"></path></g><g><path d="M34.07,334.5c4.35-3.04,9.09-6.04,15.56-6.91" style="fill:none; stroke:#263238; stroke-linecap:round; stroke-miterlimit:10; stroke-width:.75px;"></path><path d="M28.71,338.81c1.21-1.07,2.44-2.11,3.73-3.09" style="fill:none; stroke:#263238; stroke-linecap:round; stroke-miterlimit:10; stroke-width:.75px;"></path><path d="M48.7,332.41c1.4-.3,2.84-.4,4.28-.28" style="fill:none; stroke:#263238; stroke-linecap:round; stroke-miterlimit:10; stroke-width:.75px;"></path><path d="M29.75,344.16c2.43-2.37,5.04-4.54,7.82-6.49,2.79-1.92,5.77-3.63,9.02-4.7" style="fill:none; stroke:#263238; stroke-linecap:round; stroke-miterlimit:10; stroke-width:.75px;"></path><path d="M35.48,345.92c2.71-2.38,5.65-4.58,8.63-6.21,1.49-.85,3-1.45,4.44-1.94,1.42-.36,2.81-.63,3.89-.48" style="fill:none; stroke:#263238; stroke-linecap:round; stroke-miterlimit:10; stroke-width:.75px;"></path></g><g><path d="M107.81,296.5c-6.97,.92-13.69,4.05-19.43,8.38" style="fill:none; stroke:#263238; stroke-linecap:round; stroke-miterlimit:10; stroke-width:.75px;"></path><path d="M116.86,296.75c-1.06-.13-2.11-.36-3.17-.42-1.07-.01-2.14-.08-3.21-.06" style="fill:none; stroke:#263238; stroke-linecap:round; stroke-miterlimit:10; stroke-width:.75px;"></path><path d="M87.49,299.84c-1.86,1.28-3.64,2.65-5.35,4.22" style="fill:none; stroke:#263238; stroke-linecap:round; stroke-miterlimit:10; stroke-width:.75px;"></path><path d="M122.11,293.33c-5.28-1.77-11.03-2.11-16.47-1.15-5.45,.95-10.62,3.01-15.26,5.81" style="fill:none; stroke:#263238; stroke-linecap:round; stroke-miterlimit:10; stroke-width:.75px;"></path></g><g><path d="M115.33,391.43c-7.7,1.23-15.04,4.64-21.11,9.52" style="fill:none; stroke:#263238; stroke-linecap:round; stroke-miterlimit:10; stroke-width:.75px;"></path><path d="M125.46,390.82l-3.59-.05c-1.2,.02-2.38,.17-3.58,.24" style="fill:none; stroke:#263238; stroke-linecap:round; stroke-miterlimit:10; stroke-width:.75px;"></path><path d="M93.34,395.81c-2.01,1.45-3.88,3.03-5.66,4.86" style="fill:none; stroke:#263238; stroke-linecap:round; stroke-miterlimit:10; stroke-width:.75px;"></path><path d="M130.5,386.68c-5.82-.88-11.83-.68-17.64,.48-5.82,1.16-11.36,3.48-16.41,6.55" style="fill:none; stroke:#263238; stroke-linecap:round; stroke-miterlimit:10; stroke-width:.75px;"></path></g><g><path d="M166.98,340.51c1.76-2.11,3.8-4.05,6.2-5.57,2.39-1.51,5.14-2.54,8.03-2.93" style="fill:none; stroke:#263238; stroke-linecap:round; stroke-miterlimit:10; stroke-width:.75px;"></path><path d="M163.15,346.41c.36-.73,.82-1.43,1.23-2.14,.41-.72,.85-1.42,1.36-2.08" style="fill:none; stroke:#263238; stroke-linecap:round; stroke-miterlimit:10; stroke-width:.75px;"></path><path d="M180.49,336.82c1.2-.26,2.5-.38,3.59-.27" style="fill:none; stroke:#263238; stroke-linecap:round; stroke-miterlimit:10; stroke-width:.75px;"></path><path d="M166.05,351c1.36-3.03,3.04-5.86,5.13-8.28,2.1-2.38,4.62-4.36,7.48-5.36" style="fill:none; stroke:#263238; stroke-linecap:round; stroke-miterlimit:10; stroke-width:.75px;"></path></g></g></g><g id="freepik--Hot_Dog--inject-339"><g><path d="M441.47,366.49s-.28-13.48,23.65-21.45,78.66-4.95,122.11-4.95,83.88,1.38,98.74,3.3,22.83,20.9,23.1,22.55c.27,1.65-267.88,8.8-267.88,8.8l.28-8.25Z" style="fill:#92E3A9; stroke:#263238; stroke-miterlimit:10;"></path><path d="M704.67,394.55s8.25-5.78,7.43-20.9c-.83-15.13-14.58-20.35-26.13-21.73-11.55-1.38-174.37,2.75-190.59,3.03-16.23,.28-49.23,2.75-56.38,11-7.15,8.25-4.68,22-2.48,25.85,2.2,3.85,4.4,6.05,4.4,6.05l256.33-3.03,7.43-.27Z" style="fill:#263238; stroke:#263238; stroke-miterlimit:10;"></path><path d="M447.79,377.77s.83,8.53,6.05,6.6c5.23-1.93,1.65-9.08,8.8-16.23,7.15-7.15,18.98-5.78,22.83,.27,3.85,6.05,14.03,20.9,25.58,13.48,11.55-7.43,6.33-15.95,17.05-17.88,10.73-1.93,15.95,.83,18.7,6.33,2.75,5.5,10.45,11,18.43,9.35,7.98-1.65,11.55-11,15.95-16.78,4.4-5.78,13.2-2.75,16.5,3.03,3.3,5.78,5.78,18.43,18.7,17.88,12.93-.55,15.95-11,16.5-13.48,.55-2.48,4.95-16.23,13.2-13.2,8.25,3.03,7.15,18.15,23.1,21.18,15.95,3.03,22.55-6.88,23.38-12.93s3.03-8.53,4.4-7.15c1.38,1.38,8.25,6.6,9.08,3.03,.82-3.58-.28-9.08-6.33-10.73-6.05-1.65-4.68,0-8.53,0s-5.78-4.13-9.9-.83,1.65,11-.27,13.2c-1.93,2.2-13.75,4.4-17.6-2.75-3.85-7.15-8.53-14.3-23.38-13.2-14.85,1.1-17.33,7.7-17.05,11,.27,3.3-1.38,13.48-6.6,12.65-5.23-.83-9.35-15.4-17.88-18.98-8.53-3.58-22.83-4.4-26.95,0-4.13,4.4-2.48,10.73-6.33,11.55-3.85,.83-4.68-3.58-16.78-8.8-12.1-5.23-29.7-4.13-35.75,2.2-6.05,6.33-4.13,11.55-8.53,11-4.4-.55-9.35-12.1-28.33-14.3-18.98-2.2-26.68,6.6-29.15,11.83-2.48,5.23,1.1,12.65,1.1,12.65Z" style="fill:#fff; stroke:#263238; stroke-miterlimit:10;"></path><path d="M712.65,394.82s6.33,1.65-17.88-7.7c-24.2-9.35-39.88-7.43-58.58-5.5s-111.66,0-135.04,2.2c-23.38,2.2-53.63,2.75-61.33,7.7-7.7,4.95-6.88,15.13-6.6,19.53,.27,4.4,1.65,18.7,5.23,22,3.58,3.3,15.68,19.8,67.66,29.7,51.98,9.9,80.31,10.18,133.39,.55,53.08-9.63,73.43-23.38,75.36-39.88s3.03-23.38-2.2-28.6Z" style="fill:#92E3A9; stroke:#263238; stroke-miterlimit:10;"></path></g></g></svg>
