<svg width="345" height="143" viewBox="0 0 345 143" fill="none" xmlns="http://www.w3.org/2000/svg">
<g clip-path="url(#clip0_156_109)">
<path d="M14.848 82.972C11.68 82.972 9.232 82.108 7.504 80.38C5.776 78.58 4.912 76.096 4.912 72.928V15.904C4.912 12.664 5.776 10.18 7.504 8.45199C9.304 6.72399 11.788 5.86 14.956 5.86H41.524C50.164 5.86 56.824 7.984 61.504 12.232C66.256 16.408 68.632 22.24 68.632 29.728C68.632 34.552 67.552 38.764 65.392 42.364C63.304 45.892 60.244 48.628 56.212 50.572C52.252 52.444 47.356 53.38 41.524 53.38L42.388 51.436H47.572C50.668 51.436 53.404 52.192 55.78 53.704C58.156 55.144 60.136 57.376 61.72 60.4L67.12 70.12C68.272 72.208 68.812 74.26 68.74 76.276C68.668 78.22 67.876 79.84 66.364 81.136C64.924 82.36 62.8 82.972 59.992 82.972C57.184 82.972 54.88 82.396 53.08 81.244C51.352 80.092 49.804 78.292 48.436 75.844L38.608 57.808C37.744 56.224 36.628 55.144 35.26 54.568C33.964 53.92 32.452 53.596 30.724 53.596H24.784V72.928C24.784 76.096 23.956 78.58 22.3 80.38C20.644 82.108 18.16 82.972 14.848 82.972ZM24.784 39.556H37.96C41.776 39.556 44.692 38.8 46.708 37.288C48.724 35.776 49.732 33.436 49.732 30.268C49.732 27.244 48.724 24.976 46.708 23.464C44.692 21.88 41.776 21.088 37.96 21.088H24.784V39.556ZM107.337 83.188C100.857 83.188 95.2413 82.072 90.4893 79.84C85.8093 77.536 82.2093 74.296 79.6893 70.12C77.1693 65.944 75.9093 61.012 75.9093 55.324C75.9093 49.852 77.0973 45.064 79.4733 40.96C81.9213 36.784 85.2333 33.544 89.4093 31.24C93.6573 28.864 98.4813 27.676 103.881 27.676C107.841 27.676 111.441 28.324 114.681 29.62C117.921 30.844 120.693 32.68 122.997 35.128C125.301 37.504 127.029 40.384 128.181 43.768C129.405 47.152 130.017 50.932 130.017 55.108C130.017 56.548 129.621 57.628 128.829 58.348C128.037 58.996 126.777 59.32 125.049 59.32H92.0013V50.248H115.977L114.249 51.652C114.249 48.988 113.889 46.828 113.169 45.172C112.449 43.516 111.369 42.256 109.929 41.392C108.561 40.528 106.833 40.096 104.745 40.096C102.513 40.096 100.569 40.636 98.9133 41.716C97.3293 42.724 96.1053 44.236 95.2413 46.252C94.3773 48.268 93.9453 50.788 93.9453 53.812V54.784C93.9453 59.896 95.0613 63.568 97.2933 65.8C99.5973 67.96 103.125 69.04 107.877 69.04C109.461 69.04 111.261 68.86 113.277 68.5C115.365 68.068 117.345 67.492 119.217 66.772C121.089 66.052 122.709 65.944 124.077 66.448C125.445 66.88 126.489 67.672 127.209 68.824C128.001 69.904 128.433 71.164 128.505 72.604C128.577 73.972 128.253 75.34 127.533 76.708C126.813 78.004 125.625 79.012 123.969 79.732C121.449 80.884 118.749 81.748 115.869 82.324C113.061 82.9 110.217 83.188 107.337 83.188ZM159.468 83.188C156.3 83.188 153.06 82.936 149.748 82.432C146.508 82 143.556 81.172 140.892 79.948C139.092 79.228 137.796 78.256 137.004 77.032C136.284 75.808 135.924 74.512 135.924 73.144C135.996 71.776 136.392 70.552 137.112 69.472C137.904 68.32 138.912 67.528 140.136 67.096C141.432 66.592 142.872 66.628 144.456 67.204C147.48 68.284 150.18 69.076 152.556 69.58C155.004 70.012 157.344 70.228 159.576 70.228C162.24 70.228 164.148 69.868 165.3 69.148C166.452 68.356 167.028 67.348 167.028 66.124C167.028 65.044 166.632 64.216 165.84 63.64C165.12 63.064 164.076 62.668 162.708 62.452L150.72 60.508C146.256 59.716 142.8 58.096 140.352 55.648C137.904 53.128 136.68 49.852 136.68 45.82C136.68 42.076 137.724 38.872 139.812 36.208C141.972 33.472 144.888 31.384 148.56 29.944C152.304 28.432 156.588 27.676 161.412 27.676C164.652 27.676 167.604 27.928 170.268 28.432C172.932 28.864 175.524 29.692 178.044 30.916C179.628 31.564 180.744 32.5 181.392 33.724C182.04 34.948 182.292 36.244 182.148 37.612C182.004 38.908 181.536 40.132 180.744 41.284C180.024 42.364 179.016 43.12 177.72 43.552C176.424 43.912 174.912 43.804 173.184 43.228C170.808 42.292 168.684 41.608 166.812 41.176C165.012 40.744 163.32 40.528 161.736 40.528C158.784 40.528 156.696 40.924 155.472 41.716C154.248 42.508 153.636 43.516 153.636 44.74C153.636 45.676 153.96 46.468 154.608 47.116C155.256 47.692 156.264 48.088 157.632 48.304L169.62 50.356C174.228 51.076 177.756 52.66 180.204 55.108C182.724 57.484 183.984 60.724 183.984 64.828C183.984 70.66 181.752 75.196 177.288 78.436C172.824 81.604 166.884 83.188 159.468 83.188ZM219.214 83.188C213.814 83.188 209.35 82.36 205.822 80.704C202.366 79.048 199.774 76.564 198.046 73.252C196.318 69.868 195.454 65.656 195.454 60.616V43.012H191.782C189.478 43.012 187.678 42.4 186.382 41.176C185.158 39.952 184.546 38.188 184.546 35.884C184.546 33.58 185.158 31.852 186.382 30.7C187.678 29.476 189.478 28.864 191.782 28.864H195.454V22.168C195.454 19 196.282 16.588 197.938 14.932C199.594 13.276 201.97 12.448 205.066 12.448C208.162 12.448 210.538 13.276 212.194 14.932C213.85 16.588 214.678 19 214.678 22.168V28.864H223.534C225.91 28.864 227.71 29.476 228.934 30.7C230.23 31.852 230.878 33.58 230.878 35.884C230.878 38.188 230.23 39.952 228.934 41.176C227.71 42.4 225.91 43.012 223.534 43.012H214.678V59.968C214.678 62.632 215.29 64.612 216.514 65.908C217.81 67.132 219.826 67.744 222.562 67.744C223.57 67.744 224.542 67.636 225.478 67.42C226.414 67.204 227.278 67.096 228.07 67.096C229.222 67.024 230.158 67.384 230.878 68.176C231.598 68.896 231.958 70.588 231.958 73.252C231.958 75.412 231.634 77.248 230.986 78.76C230.338 80.2 229.186 81.244 227.53 81.892C226.522 82.252 225.154 82.54 223.426 82.756C221.698 83.044 220.294 83.188 219.214 83.188ZM247.163 82.972C243.995 82.972 241.547 82.144 239.819 80.488C238.163 78.832 237.335 76.42 237.335 73.252V37.504C237.335 34.408 238.127 32.032 239.711 30.376C241.367 28.72 243.707 27.892 246.731 27.892C249.755 27.892 252.059 28.72 253.643 30.376C255.227 32.032 256.019 34.408 256.019 37.504V41.932H254.939C255.659 37.612 257.495 34.192 260.447 31.672C263.471 29.152 267.215 27.82 271.679 27.676C273.767 27.604 275.315 28.144 276.323 29.296C277.403 30.376 277.979 32.428 278.051 35.452C278.051 38.044 277.511 40.096 276.431 41.608C275.351 43.12 273.299 44.02 270.275 44.308L267.791 44.524C263.975 44.884 261.203 45.964 259.475 47.764C257.747 49.492 256.883 52.084 256.883 55.54V73.252C256.883 76.42 256.055 78.832 254.399 80.488C252.743 82.144 250.331 82.972 247.163 82.972ZM310.106 83.188C304.202 83.188 299.054 82.072 294.662 79.84C290.27 77.608 286.85 74.404 284.402 70.228C281.954 66.052 280.73 61.12 280.73 55.432C280.73 51.112 281.414 47.26 282.782 43.876C284.15 40.42 286.13 37.504 288.722 35.128C291.314 32.68 294.41 30.844 298.01 29.62C301.61 28.324 305.642 27.676 310.106 27.676C316.01 27.676 321.158 28.792 325.55 31.024C329.942 33.256 333.326 36.46 335.702 40.636C338.15 44.74 339.374 49.672 339.374 55.432C339.374 59.68 338.69 63.532 337.322 66.988C335.954 70.444 333.974 73.396 331.382 75.844C328.862 78.22 325.766 80.056 322.094 81.352C318.494 82.576 314.498 83.188 310.106 83.188ZM310.106 69.04C312.05 69.04 313.778 68.572 315.29 67.636C316.802 66.628 317.954 65.152 318.746 63.208C319.61 61.192 320.042 58.6 320.042 55.432C320.042 50.608 319.106 47.152 317.234 45.064C315.362 42.904 312.986 41.824 310.106 41.824C308.162 41.824 306.434 42.292 304.922 43.228C303.41 44.164 302.222 45.64 301.358 47.656C300.494 49.6 300.062 52.192 300.062 55.432C300.062 60.184 300.998 63.64 302.87 65.8C304.742 67.96 307.154 69.04 310.106 69.04Z" fill="#343434"/>
<path d="M149.424 135.486C147.84 135.486 146.616 135.054 145.752 134.19C144.888 133.29 144.456 132.048 144.456 130.464V101.952C144.456 100.332 144.888 99.09 145.752 98.226C146.652 97.362 147.894 96.93 149.478 96.93H162.762C167.082 96.93 170.412 98.046 172.752 100.278C175.128 102.474 176.316 105.516 176.316 109.404C176.316 113.292 175.128 116.352 172.752 118.584C170.412 120.78 167.082 121.878 162.762 121.878H154.392V130.464C154.392 132.048 153.978 133.29 153.15 134.19C152.322 135.054 151.08 135.486 149.424 135.486ZM154.392 114.264H161.034C162.906 114.264 164.346 113.868 165.354 113.076C166.362 112.248 166.866 111.024 166.866 109.404C166.866 107.748 166.362 106.524 165.354 105.732C164.346 104.94 162.906 104.544 161.034 104.544H154.392V114.264ZM185.916 135.486C184.332 135.486 183.108 135.054 182.244 134.19C181.38 133.29 180.948 132.048 180.948 130.464V101.952C180.948 100.332 181.38 99.09 182.244 98.226C183.144 97.362 184.386 96.93 185.97 96.93H199.254C203.574 96.93 206.904 97.992 209.244 100.116C211.62 102.204 212.808 105.12 212.808 108.864C212.808 111.276 212.268 113.382 211.188 115.182C210.144 116.946 208.614 118.314 206.598 119.286C204.618 120.222 202.17 120.69 199.254 120.69L199.686 119.718H202.278C203.826 119.718 205.194 120.096 206.382 120.852C207.57 121.572 208.56 122.688 209.352 124.2L212.052 129.06C212.628 130.104 212.898 131.13 212.862 132.138C212.826 133.11 212.43 133.92 211.674 134.568C210.954 135.18 209.892 135.486 208.488 135.486C207.084 135.486 205.932 135.198 205.032 134.622C204.168 134.046 203.394 133.146 202.71 131.922L197.796 122.904C197.364 122.112 196.806 121.572 196.122 121.284C195.474 120.96 194.718 120.798 193.854 120.798H190.884V130.464C190.884 132.048 190.47 133.29 189.642 134.19C188.814 135.054 187.572 135.486 185.916 135.486ZM190.884 113.778H197.472C199.38 113.778 200.838 113.4 201.846 112.644C202.854 111.888 203.358 110.718 203.358 109.134C203.358 107.622 202.854 106.488 201.846 105.732C200.838 104.94 199.38 104.544 197.472 104.544H190.884V113.778ZM237.171 135.594C233.319 135.594 229.935 134.784 227.019 133.164C224.103 131.508 221.835 129.204 220.215 126.252C218.631 123.3 217.839 119.862 217.839 115.938C217.839 112.986 218.289 110.304 219.189 107.892C220.125 105.48 221.439 103.41 223.131 101.682C224.859 99.954 226.911 98.64 229.287 97.74C231.663 96.804 234.291 96.336 237.171 96.336C241.023 96.336 244.389 97.146 247.269 98.766C250.185 100.386 252.453 102.672 254.073 105.624C255.693 108.54 256.503 111.978 256.503 115.938C256.503 118.89 256.035 121.572 255.099 123.984C254.199 126.396 252.885 128.484 251.157 130.248C249.465 131.976 247.431 133.308 245.055 134.244C242.679 135.144 240.051 135.594 237.171 135.594ZM237.171 127.278C239.079 127.278 240.699 126.828 242.031 125.928C243.363 125.028 244.389 123.732 245.109 122.04C245.829 120.348 246.189 118.314 246.189 115.938C246.189 112.374 245.397 109.602 243.813 107.622C242.229 105.642 240.015 104.652 237.171 104.652C235.299 104.652 233.679 105.102 232.311 106.002C230.979 106.866 229.953 108.144 229.233 109.836C228.513 111.492 228.153 113.526 228.153 115.938C228.153 119.502 228.945 122.292 230.529 124.308C232.113 126.288 234.327 127.278 237.171 127.278Z" fill="#59A352"/>
<rect x="265" y="102" width="71" height="31" rx="15.5" fill="#ECECEC"/>
<path d="M282.52 124.22C281.987 124.22 281.427 124.18 280.84 124.1C280.267 124.033 279.72 123.927 279.2 123.78C278.68 123.633 278.213 123.46 277.8 123.26C277.44 123.087 277.187 122.86 277.04 122.58C276.893 122.287 276.84 121.98 276.88 121.66C276.92 121.34 277.033 121.06 277.22 120.82C277.407 120.567 277.653 120.4 277.96 120.32C278.267 120.227 278.613 120.267 279 120.44C279.507 120.68 280.08 120.867 280.72 121C281.36 121.133 281.96 121.2 282.52 121.2C283.4 121.2 284.013 121.087 284.36 120.86C284.72 120.62 284.9 120.327 284.9 119.98C284.9 119.673 284.773 119.427 284.52 119.24C284.28 119.053 283.847 118.893 283.22 118.76L280.88 118.26C279.6 117.993 278.647 117.527 278.02 116.86C277.393 116.193 277.08 115.333 277.08 114.28C277.08 113.587 277.22 112.96 277.5 112.4C277.793 111.827 278.2 111.34 278.72 110.94C279.253 110.54 279.88 110.233 280.6 110.02C281.333 109.793 282.147 109.68 283.04 109.68C283.733 109.68 284.433 109.76 285.14 109.92C285.86 110.067 286.48 110.293 287 110.6C287.307 110.76 287.527 110.98 287.66 111.26C287.793 111.54 287.847 111.833 287.82 112.14C287.793 112.433 287.687 112.693 287.5 112.92C287.327 113.147 287.087 113.3 286.78 113.38C286.487 113.447 286.133 113.393 285.72 113.22C285.333 113.047 284.893 112.92 284.4 112.84C283.92 112.747 283.453 112.7 283 112.7C282.507 112.7 282.087 112.76 281.74 112.88C281.393 112.987 281.127 113.147 280.94 113.36C280.767 113.573 280.68 113.82 280.68 114.1C280.68 114.38 280.793 114.62 281.02 114.82C281.26 115.007 281.693 115.167 282.32 115.3L284.64 115.8C285.933 116.08 286.9 116.54 287.54 117.18C288.18 117.82 288.5 118.653 288.5 119.68C288.5 120.373 288.36 121 288.08 121.56C287.8 122.12 287.4 122.6 286.88 123C286.36 123.387 285.733 123.687 285 123.9C284.267 124.113 283.44 124.22 282.52 124.22ZM293.487 124.22C292.727 124.22 292.054 124.08 291.467 123.8C290.894 123.52 290.441 123.14 290.107 122.66C289.787 122.167 289.627 121.607 289.627 120.98C289.627 120.26 289.814 119.693 290.187 119.28C290.561 118.867 291.161 118.573 291.987 118.4C292.814 118.213 293.914 118.12 295.287 118.12H296.387V119.8H295.287C294.767 119.8 294.334 119.84 293.987 119.92C293.654 119.987 293.407 120.1 293.247 120.26C293.087 120.407 293.007 120.6 293.007 120.84C293.007 121.147 293.114 121.4 293.327 121.6C293.554 121.8 293.874 121.9 294.287 121.9C294.621 121.9 294.914 121.827 295.167 121.68C295.434 121.533 295.647 121.333 295.807 121.08C295.967 120.813 296.047 120.507 296.047 120.16V117.84C296.047 117.36 295.921 117.02 295.667 116.82C295.427 116.62 295.007 116.52 294.407 116.52C294.087 116.52 293.727 116.56 293.327 116.64C292.927 116.707 292.481 116.833 291.987 117.02C291.627 117.153 291.321 117.173 291.067 117.08C290.814 116.987 290.614 116.827 290.467 116.6C290.334 116.373 290.267 116.127 290.267 115.86C290.281 115.593 290.367 115.34 290.527 115.1C290.701 114.86 290.961 114.673 291.307 114.54C291.947 114.3 292.534 114.14 293.067 114.06C293.614 113.98 294.114 113.94 294.567 113.94C295.661 113.94 296.561 114.1 297.267 114.42C297.987 114.727 298.521 115.207 298.867 115.86C299.227 116.5 299.407 117.327 299.407 118.34V122.38C299.407 122.967 299.267 123.413 298.987 123.72C298.707 124.027 298.301 124.18 297.767 124.18C297.221 124.18 296.801 124.027 296.507 123.72C296.227 123.413 296.087 122.967 296.087 122.38V121.86L296.207 122.14C296.141 122.567 295.987 122.933 295.747 123.24C295.507 123.547 295.194 123.787 294.807 123.96C294.421 124.133 293.981 124.22 293.487 124.22ZM304.855 124.22C304.095 124.22 303.421 124.08 302.835 123.8C302.261 123.52 301.808 123.14 301.475 122.66C301.155 122.167 300.995 121.607 300.995 120.98C300.995 120.26 301.181 119.693 301.555 119.28C301.928 118.867 302.528 118.573 303.355 118.4C304.181 118.213 305.281 118.12 306.655 118.12H307.755V119.8H306.655C306.135 119.8 305.701 119.84 305.355 119.92C305.021 119.987 304.775 120.1 304.615 120.26C304.455 120.407 304.375 120.6 304.375 120.84C304.375 121.147 304.481 121.4 304.695 121.6C304.921 121.8 305.241 121.9 305.655 121.9C305.988 121.9 306.281 121.827 306.535 121.68C306.801 121.533 307.015 121.333 307.175 121.08C307.335 120.813 307.415 120.507 307.415 120.16V117.84C307.415 117.36 307.288 117.02 307.035 116.82C306.795 116.62 306.375 116.52 305.775 116.52C305.455 116.52 305.095 116.56 304.695 116.64C304.295 116.707 303.848 116.833 303.355 117.02C302.995 117.153 302.688 117.173 302.435 117.08C302.181 116.987 301.981 116.827 301.835 116.6C301.701 116.373 301.635 116.127 301.635 115.86C301.648 115.593 301.735 115.34 301.895 115.1C302.068 114.86 302.328 114.673 302.675 114.54C303.315 114.3 303.901 114.14 304.435 114.06C304.981 113.98 305.481 113.94 305.935 113.94C307.028 113.94 307.928 114.1 308.635 114.42C309.355 114.727 309.888 115.207 310.235 115.86C310.595 116.5 310.775 117.327 310.775 118.34V122.38C310.775 122.967 310.635 123.413 310.355 123.72C310.075 124.027 309.668 124.18 309.135 124.18C308.588 124.18 308.168 124.027 307.875 123.72C307.595 123.413 307.455 122.967 307.455 122.38V121.86L307.575 122.14C307.508 122.567 307.355 122.933 307.115 123.24C306.875 123.547 306.561 123.787 306.175 123.96C305.788 124.133 305.348 124.22 304.855 124.22ZM318.282 124.22C317.748 124.22 317.188 124.18 316.602 124.1C316.028 124.033 315.482 123.927 314.962 123.78C314.442 123.633 313.975 123.46 313.562 123.26C313.202 123.087 312.948 122.86 312.802 122.58C312.655 122.287 312.602 121.98 312.642 121.66C312.682 121.34 312.795 121.06 312.982 120.82C313.168 120.567 313.415 120.4 313.722 120.32C314.028 120.227 314.375 120.267 314.762 120.44C315.268 120.68 315.842 120.867 316.482 121C317.122 121.133 317.722 121.2 318.282 121.2C319.162 121.2 319.775 121.087 320.122 120.86C320.482 120.62 320.662 120.327 320.662 119.98C320.662 119.673 320.535 119.427 320.282 119.24C320.042 119.053 319.608 118.893 318.982 118.76L316.642 118.26C315.362 117.993 314.408 117.527 313.782 116.86C313.155 116.193 312.842 115.333 312.842 114.28C312.842 113.587 312.982 112.96 313.262 112.4C313.555 111.827 313.962 111.34 314.482 110.94C315.015 110.54 315.642 110.233 316.362 110.02C317.095 109.793 317.908 109.68 318.802 109.68C319.495 109.68 320.195 109.76 320.902 109.92C321.622 110.067 322.242 110.293 322.762 110.6C323.068 110.76 323.288 110.98 323.422 111.26C323.555 111.54 323.608 111.833 323.582 112.14C323.555 112.433 323.448 112.693 323.262 112.92C323.088 113.147 322.848 113.3 322.542 113.38C322.248 113.447 321.895 113.393 321.482 113.22C321.095 113.047 320.655 112.92 320.162 112.84C319.682 112.747 319.215 112.7 318.762 112.7C318.268 112.7 317.848 112.76 317.502 112.88C317.155 112.987 316.888 113.147 316.702 113.36C316.528 113.573 316.442 113.82 316.442 114.1C316.442 114.38 316.555 114.62 316.782 114.82C317.022 115.007 317.455 115.167 318.082 115.3L320.402 115.8C321.695 116.08 322.662 116.54 323.302 117.18C323.942 117.82 324.262 118.653 324.262 119.68C324.262 120.373 324.122 121 323.842 121.56C323.562 122.12 323.162 122.6 322.642 123C322.122 123.387 321.495 123.687 320.762 123.9C320.028 124.113 319.202 124.22 318.282 124.22Z" fill="#1E1E1E"/>
</g>
<defs>
<clipPath id="clip0_156_109">
<rect width="345" height="143" fill="white"/>
</clipPath>
</defs>
</svg>
