<svg width="108" height="108" viewBox="0 0 108 108" fill="none" xmlns="http://www.w3.org/2000/svg">
<rect width="108" height="108" rx="23.4545" fill="white"/>
<path d="M67.3721 25.8459C67.3721 19.8881 70.351 16.9092 76.3088 16.9092C82.2201 16.9092 85.1757 19.8881 85.1757 25.8459V58.2415C85.1757 64.1994 82.2201 67.1783 76.3088 67.1783C70.351 67.1783 67.3721 64.1994 67.3721 58.2415V25.8459Z" fill="#BFBFBF"/>
<path d="M22.9092 25.8459C22.9092 19.8881 25.8881 16.9092 31.8459 16.9092C37.7572 16.9092 40.7128 19.8881 40.7128 25.8459V49.3746C40.7128 51.3761 41.5506 52.3768 43.2263 52.3768C44.9019 52.3768 45.7397 51.3528 45.7397 49.3048V25.8459C45.7397 19.8881 48.7186 16.9092 54.6765 16.9092C60.5877 16.9092 63.5434 19.8881 63.5434 25.8459V49.1652C63.5434 52.2837 63.1943 54.9834 62.4961 57.2641C61.7979 59.4983 60.6343 61.3601 59.0052 62.8495C57.4226 64.2925 55.3281 65.3863 52.7215 66.131C50.1615 66.8292 46.9965 67.1783 43.2263 67.1783C39.5957 67.1783 36.4772 66.8525 33.8706 66.2008C31.3106 65.5026 29.2161 64.4321 27.587 62.9892C25.9579 61.5463 24.771 59.6845 24.0263 57.4037C23.2815 55.123 22.9092 52.3768 22.9092 49.1652V25.8459Z" fill="#BFBFBF"/>
<path d="M73.635 72.4883C74.019 72.4883 74.403 72.5406 74.787 72.6454C75.171 72.7501 75.5201 72.9159 75.8343 73.1428C76.1485 73.3697 76.4016 73.6665 76.5936 74.033C76.803 74.3821 76.9165 74.8097 76.9339 75.3159L77.379 85.4221H78.1645L78.6096 75.3159C78.6445 74.4083 78.9325 73.7101 79.4736 73.2214C80.0321 72.7326 80.8525 72.4883 81.9347 72.4883C83.2437 72.4883 84.2125 72.8374 84.8408 73.5356C85.4692 74.2337 85.6786 75.1937 85.4692 76.4156L83.4532 88.4068C83.2612 89.5065 82.8423 90.2396 82.1965 90.6061C81.5681 90.9726 80.7041 91.1559 79.6045 91.1559H77.7717C76.6372 91.1559 75.7906 90.8592 75.2321 90.2657C74.691 89.6548 74.3506 88.7123 74.211 87.4381L73.9754 85.2912H73.2423L73.0066 87.4905C72.867 88.817 72.5616 89.7596 72.0903 90.3181C71.6365 90.8766 70.8685 91.1559 69.7863 91.1559H67.6132C66.5136 91.1559 65.6408 90.9726 64.995 90.6061C64.3667 90.2396 63.9565 89.5065 63.7645 88.4068L61.7485 76.4156C61.539 75.1937 61.7485 74.2337 62.3768 73.5356C63.0052 72.8374 63.9739 72.4883 65.283 72.4883C66.3652 72.4883 67.1768 72.7326 67.7179 73.2214C68.2765 73.7101 68.5732 74.4083 68.6081 75.3159L69.0532 85.4221H69.8386L70.2837 75.3159C70.3012 74.8097 70.4146 74.3821 70.6241 74.033C70.8336 73.6665 71.0954 73.3697 71.4096 73.1428C71.7237 72.9159 72.0728 72.7501 72.4568 72.6454C72.8583 72.5406 73.251 72.4883 73.635 72.4883Z" fill="#BFBFBF"/>
<path d="M45.8467 81.8615C45.8467 80.1335 45.9863 78.676 46.2656 77.4891C46.5449 76.2848 46.99 75.3073 47.6009 74.5568C48.2118 73.8062 49.006 73.2651 49.9834 72.9335C50.9609 72.6019 52.1565 72.436 53.5703 72.436C54.9667 72.436 56.1449 72.6019 57.1049 72.9335C58.0823 73.2651 58.8765 73.8062 59.4874 74.5568C60.0983 75.2899 60.5347 76.2586 60.7965 77.4629C61.0758 78.6673 61.2154 80.1335 61.2154 81.8615C61.2154 83.5895 61.0758 85.0557 60.7965 86.26C60.5347 87.4644 60.0983 88.4419 59.4874 89.1924C58.8765 89.9255 58.0823 90.4579 57.1049 90.7895C56.1449 91.1211 54.9667 91.2869 53.5703 91.2869C52.1565 91.2869 50.9609 91.1211 49.9834 90.7895C49.006 90.4404 48.2118 89.8993 47.6009 89.1662C46.99 88.4157 46.5449 87.4469 46.2656 86.26C45.9863 85.0557 45.8467 83.5895 45.8467 81.8615ZM52.6801 84.2179C52.6801 85.108 52.9769 85.5531 53.5703 85.5531C54.1463 85.5531 54.4343 85.1168 54.4343 84.244L54.382 79.2171C54.382 78.4317 54.094 78.0389 53.518 78.0389C53.1863 78.0389 52.9507 78.1611 52.811 78.4055C52.6889 78.6499 52.6278 78.9815 52.6278 79.4004L52.6801 84.2179Z" fill="#BFBFBF"/>
<path d="M38.5125 91.0251C37.4827 90.9902 36.7147 90.7371 36.2085 90.2659C35.7023 89.7946 35.4492 89.0179 35.4492 87.9357V75.7873C35.4492 73.5531 36.5663 72.436 38.8005 72.436C41.0172 72.436 42.1256 73.5531 42.1256 75.7873V84.8462H42.8587C44.9183 84.8462 45.9481 85.876 45.9481 87.9357C45.9481 89.9953 44.9183 91.0251 42.8587 91.0251H38.5125Z" fill="#BFBFBF"/>
<path d="M30.2623 78.9028V80.2643H31.9641C33.0638 80.2643 33.6136 80.8141 33.6136 81.9138C33.6136 83.0134 33.0638 83.5632 31.9641 83.5632H30.2623V87.9356C30.2623 90.1698 29.1539 91.2868 26.9372 91.2868C24.703 91.2868 23.5859 90.1698 23.5859 87.9356V76.5465C23.5859 76.0054 23.6558 75.4992 23.7954 75.0279C23.935 74.5567 24.1445 74.1465 24.4238 73.7974C24.703 73.4483 25.0521 73.1778 25.471 72.9858C25.9074 72.7938 26.4136 72.6978 26.9896 72.6978H31.4928C33.5525 72.6978 34.5823 73.7276 34.5823 75.7872C34.5823 77.8643 33.5525 78.9028 31.4928 78.9028H30.2623Z" fill="#BFBFBF"/>
</svg>
